<svg width="1056" height="323" xmlns="http://www.w3.org/2000/svg" xmlns:xlink="http://www.w3.org/1999/xlink" overflow="hidden"><defs><clipPath id="clip0"><rect x="0" y="246" width="1056" height="323"/></clipPath><clipPath id="clip1"><rect x="0" y="247" width="1056" height="322"/></clipPath><clipPath id="clip2"><rect x="0" y="247" width="1056" height="322"/></clipPath><clipPath id="clip3"><rect x="0" y="247" width="1056" height="322"/></clipPath><clipPath id="clip4"><rect x="-16" y="293" width="1084" height="229"/></clipPath><clipPath id="clip5"><rect x="-16" y="293" width="1084" height="229"/></clipPath><clipPath id="clip6"><rect x="-16" y="293" width="1084" height="229"/></clipPath><clipPath id="clip7"><rect x="-16" y="293" width="1084" height="229"/></clipPath><clipPath id="clip8"><rect x="-16" y="293" width="1084" height="229"/></clipPath><clipPath id="clip9"><rect x="-16" y="293" width="1084" height="229"/></clipPath><clipPath id="clip10"><rect x="-16" y="293" width="1084" height="229"/></clipPath><clipPath id="clip11"><rect x="-16" y="293" width="1084" height="229"/></clipPath><clipPath id="clip12"><rect x="-16" y="293" width="1084" height="229"/></clipPath><clipPath id="clip13"><rect x="-16" y="293" width="1084" height="229"/></clipPath><clipPath id="clip14"><rect x="-16" y="293" width="1084" height="229"/></clipPath><clipPath id="clip15"><rect x="-16" y="293" width="1084" height="229"/></clipPath><clipPath id="clip16"><rect x="-16" y="293" width="1084" height="229"/></clipPath><clipPath id="clip17"><rect x="-16" y="293" width="1084" height="229"/></clipPath></defs><g clip-path="url(#clip0)" transform="matrix(1 0 0 1 0 -246)"><g clip-path="url(#clip1)"><g clip-path="url(#clip2)"><g clip-path="url(#clip3)"><path d="M30.6485 25.0516C30.6823 24.7471 30.5505 24.4478 30.3031 24.2671 30.1025 24.0493 29.8206 23.9242 29.5245 23.9217 29.2735 23.9943 29.0375 24.1113 28.8278 24.2671 28.4989 24.5101 28.1105 24.6597 27.7037 24.7003 23.547 25.2858 20.6783 25.7424 19.1327 25.7424 19.119 25.4754 19.0616 25.2123 18.9629 24.9638 18.9185 24.7606 18.7376 24.6164 18.5296 24.6184 18.2039 24.5994 17.8865 24.7259 17.6632 24.9638 17.4266 25.1881 17.3004 25.5048 17.3177 25.8303 16.7323 25.8303 15.5614 25.9122 13.9397 26 12.318 26.0879 11.0827 26.1757 10.4796 26.1757 9.81321 26.1572 9.14849 26.0986 8.48909 26 8.22564 26 8.05585 25.9122 7.7924 25.9122L7.10156 25.9122C6.84549 25.905 6.59696 25.9997 6.41073 26.1757 6.22596 26.3823 6.13111 26.6542 6.14727 26.9309 6.12579 27.3837 6.34943 27.813 6.73273 28.055 7.11942 28.313 7.56823 28.4626 8.03244 28.4882 8.54764 28.4882 10.1928 28.4004 12.962 28.1428 12.7922 28.1428 14.1739 28.055 17.0601 27.8793L16.6269 41.298C16.6355 41.7327 16.6081 42.1674 16.5449 42.5977 16.5449 43.1187 16.4571 43.6398 16.4571 44.354L16.1995 50.4135 14.2909 50.5013C12.3004 50.5891 10.8309 50.6711 9.7888 50.6711 9.42775 50.6692 9.07244 50.5809 8.75255 50.4135 8.56397 50.3133 8.36831 50.2273 8.16709 50.1559 7.94345 50.1632 7.74351 50.2972 7.65189 50.5013 7.50962 50.667 7.41812 50.8703 7.38844 51.0868 7.32919 51.5212 7.45442 51.9607 7.73385 52.2987 8.34185 52.7204 9.07349 52.9265 9.81222 52.8841 11.407 52.8194 12.9975 52.6748 14.5778 52.4509L16.3927 52.2752C16.3927 52.4509 16.4805 52.5387 16.6503 52.6207 16.8143 52.6918 16.9932 52.7219 17.1714 52.7085 17.347 52.7085 17.4348 52.6207 17.6046 52.5387 17.7883 52.4398 17.939 52.2892 18.0379 52.1055 21.9311 51.9298 24.4427 51.842 25.7424 51.842 26.2085 51.8679 26.6721 51.9266 27.13 52.0176 27.5884 52.0744 28.0497 52.1037 28.5116 52.1055 28.9449 52.1055 29.2083 52.0176 29.2903 51.842 29.4099 51.6001 29.4701 51.3332 29.4659 51.0633 29.4847 50.6345 29.2575 50.2324 28.8805 50.0271 28.4659 49.7929 27.9912 49.6869 27.5164 49.7227 27.2529 49.7227 26.1288 49.8046 24.1383 49.8924 21.7145 50.0681 19.8118 50.1559 18.3364 50.1559 18.3364 47.4667 18.4243 43.31 18.5999 37.6857 18.7697 32.0595 18.8575 28.6873 18.9453 27.5573 19.9816 27.4754 21.3691 27.3876 23.0962 27.2119 24.8233 27.0363 26.2167 26.7787 27.3407 26.6265 28.1363 26.497 28.9196 26.3012 29.6825 26.041 30.3792 25.9532 30.6368 25.6078 30.6368 25.0926Z" fill="#A5A5A5" fill-rule="nonzero" fill-opacity="1" transform="matrix(1.00207 0 0 1 0 247)"/><path d="M9.87076 53.4403 9.87076 53.4403C9.03333 53.4913 8.20462 53.2468 7.52894 52.7495 7.15935 52.3187 6.97797 51.7578 7.02545 51.1921 7.04132 50.8821 7.15859 50.586 7.35916 50.3491 7.57713 50.0345 7.93092 49.8413 8.31345 49.828 8.40127 49.828 8.48909 49.828 9.09211 50.0915 9.39022 50.2295 9.71896 50.288 10.0464 50.2613 11.0827 50.2613 12.558 50.1793 14.4607 50.0915L15.9302 50.0037 16.1937 44.3775C16.1937 43.792 16.2756 43.1656 16.2756 42.6211L16.2756 41.3214 16.7089 28.4414C13.9397 28.617 13.2488 28.7048 13.161 28.7048 10.3918 28.8746 8.74669 29.0503 8.22564 29.0503 7.66178 29.0625 7.11122 28.8784 6.66833 28.5292 5.8412 27.9516 5.63887 26.8129 6.21641 25.9858 6.24967 25.9382 6.28526 25.8921 6.32291 25.8478 6.59351 25.5662 6.96867 25.4094 7.35916 25.4146 7.5944 25.4013 7.83016 25.429 8.05585 25.4965L8.74669 25.5844C9.37049 25.7259 10.0102 25.7849 10.6494 25.76 11.1705 25.76 12.4058 25.6722 14.0275 25.5844 15.415 25.4965 16.4513 25.4965 17.0543 25.4146 17.1656 25.138 17.3111 24.8763 17.4875 24.6359 17.7953 24.2926 18.2385 24.102 18.6994 24.1149 19.0753 24.1317 19.41 24.3578 19.5659 24.7003 19.6537 24.876 19.6537 24.9638 19.7415 25.1336 21.3867 25.0516 24.068 24.7003 27.7915 24.0973 28.1287 24.044 28.4526 23.9267 28.7458 23.7519 29.3313 23.3187 29.5245 23.3187 29.6943 23.3187 30.1061 23.3453 30.5001 23.4964 30.8242 23.7519 31.1653 24.0608 31.3537 24.5038 31.3394 24.9638 31.3464 25.6464 30.9355 26.264 30.3031 26.5211 29.5272 26.8306 28.711 27.0277 27.8793 27.1065 26.4481 27.3874 25.0014 27.5829 23.547 27.692 22.0775 27.8618 20.7778 27.9496 19.7415 28.0374 19.6537 29.5069 19.5659 32.7972 19.3961 37.8204 19.2205 43.0133 19.1327 47.0823 19.1327 49.7636 20.5202 49.7636 22.3351 49.6817 24.4017 49.506 26.4801 49.4182 27.6042 49.3304 27.8676 49.3304 28.4047 49.3443 28.9339 49.4636 29.4249 49.6817 29.9613 49.9757 30.2938 50.5395 30.2914 51.1512 30.3202 51.5439 30.2283 51.9361 30.028 52.2752 29.7058 52.5883 29.2637 52.7464 28.8161 52.7085 28.7341 52.7085 28.4707 52.7085 27.4344 52.6207 26.9753 52.5391 26.5121 52.4824 26.0469 52.4509 24.7472 52.4509 22.2414 52.5387 18.6057 52.7085 18.4541 52.8538 18.2777 52.9708 18.0847 53.0539 17.8829 53.1932 17.6378 53.2556 17.3939 53.2295 17.1531 53.2127 16.9172 53.1532 16.6972 53.0539 16.5671 52.9901 16.45 52.9028 16.3517 52.7963L14.7944 52.9719C12.558 53.2764 10.9948 53.4403 9.87076 53.4403ZM8.22564 50.6711 8.05585 50.8467C7.88022 51.1043 7.88022 51.1921 7.88022 51.1921 7.86786 51.4909 7.92817 51.7883 8.05585 52.0586 8.58212 52.3819 9.19597 52.5333 9.81222 52.4919 11.38 52.4302 12.9434 52.2856 14.4959 52.0586L16.744 51.801 16.8318 52.2284C16.9364 52.2896 17.0561 52.32 17.1772 52.3162 17.2701 52.3054 17.3598 52.2755 17.4407 52.2284 17.5227 52.1464 17.6983 52.0586 17.7861 51.9708L17.9559 51.801 18.2193 51.801C21.9897 51.6254 24.5891 51.52 25.8888 51.52 26.3825 51.5403 26.8738 51.599 27.3583 51.6956 27.7898 51.7469 28.2235 51.7762 28.658 51.7835 29.0034 51.7835 29.0912 51.6956 29.0912 51.6956 29.157 51.5301 29.187 51.3525 29.1791 51.1746 29.1997 50.9243 29.0583 50.6887 28.8278 50.5891 28.4789 50.417 28.0925 50.3345 27.7037 50.3491 27.4461 50.3491 26.404 50.4369 24.3315 50.5247 21.9019 50.6945 19.9991 50.7823 18.5296 50.7823L18.0086 50.7823 18.0086 50.2613C18.0086 47.5799 18.0945 43.4251 18.2662 37.7969 18.4418 32.2585 18.5296 28.7927 18.6175 27.5808L18.6175 27.1475 19.0507 27.1475C20.0869 27.0656 21.4745 26.9777 23.2016 26.8021 24.9287 26.6265 26.322 26.3689 27.4461 26.2167 28.1937 26.1328 28.9242 25.9354 29.6123 25.6312 29.9577 25.4614 30.1275 25.2858 30.1275 24.9404 30.1237 24.7805 30.0636 24.627 29.9577 24.5071 29.7821 24.4193 29.6943 24.3315 29.5245 24.3315 29.3547 24.3315 29.3488 24.4193 29.0034 24.5949 28.6026 24.8406 28.1632 25.0167 27.7037 25.116 24.8471 25.6632 21.9557 26.0095 19.0507 26.1523L18.5296 26.1523 18.5296 25.6312C18.5436 25.4549 18.5134 25.2778 18.4418 25.116 18.4418 25.0675 18.4025 25.0282 18.354 25.0282 18.1729 25.0266 18.0059 25.1259 17.9208 25.2858 17.7574 25.4368 17.6642 25.6488 17.6632 25.8712L17.6632 26.3045 17.2299 26.3045C16.6445 26.3045 15.4736 26.3864 13.8519 26.4743 12.2301 26.5621 10.9948 26.6499 10.3918 26.6499 9.68904 26.6354 8.99083 26.5332 8.31345 26.3455L7.728 26.2635 7.14255 26.2635C6.88495 26.2635 6.79713 26.3455 6.79713 26.4333 6.68735 26.5512 6.62483 26.7054 6.62149 26.8665 6.62149 27.2119 6.79713 27.3876 7.05473 27.6452 7.35384 27.8733 7.72068 27.9949 8.09684 27.9906 8.61204 27.9906 10.2572 27.9028 12.9444 27.6452L12.9444 27.733C13.4596 27.6452 14.5895 27.5573 17.0426 27.3876L17.5578 27.3876 17.1245 41.3214C17.1118 41.758 17.0629 42.1927 16.9782 42.6211 16.9782 43.1421 16.8904 43.6632 16.8904 44.3775L16.6269 50.7589 14.2851 50.9345C12.2945 51.0165 10.8251 51.1043 9.78294 51.1043 9.3668 51.0918 8.95628 51.0046 8.57105 50.8467 8.47715 50.7535 8.35631 50.692 8.22564 50.6711Z" fill="#A5A5A5" fill-rule="nonzero" fill-opacity="1" transform="matrix(1.00207 0 0 1 0 247)"/><path d="M46.6607 51.52C46.6607 46.7603 46.6607 43.1246 46.5788 40.613 46.5552 38.7527 46.3592 36.8986 45.9933 35.0746 45.6479 33.5992 45.1268 32.9084 44.2369 32.9084 43.0251 32.9084 41.8132 34.2081 40.5193 36.7197 38.968 39.8479 37.5806 43.0546 36.3626 46.327 36.2748 46.5846 36.1869 46.7603 36.0991 47.0179 36.0113 47.2755 35.9293 47.3633 35.8415 47.5389 35.8415 46.7603 35.6717 45.0273 35.4961 42.2698L35.3205 40.1036C35.1507 37.1764 35.0629 35.0863 34.9751 33.7866 34.8872 32.4869 34.6296 31.796 34.3896 31.796 33.9589 31.7773 33.5338 31.8985 33.1777 32.1415 32.8426 32.3788 32.6473 32.7671 32.6567 33.1777 32.6493 33.4981 32.6788 33.8183 32.7445 34.132 33.0021 35.8884 33.2655 37.9433 33.4353 40.2793L34.0208 46.1338 34.3662 49.5119C34.3567 49.7006 34.4171 49.8861 34.536 50.0329 34.6238 50.1208 34.8814 50.1208 35.2327 50.1208 35.5128 50.1133 35.7842 50.0214 36.0113 49.8573 36.2732 49.7149 36.4626 49.4681 36.5324 49.1782L37.1178 47.5331C38.2153 44.4335 39.4857 41.3981 40.9233 38.4409 42.0532 36.0991 43.0895 34.9809 43.9559 34.9809 44.3013 34.9809 44.5414 35.502 44.6468 36.5382 44.7521 37.5745 44.8224 38.88 44.8224 40.5193 44.8224 42.1586 44.7346 44.2428 44.5648 46.7544 44.3892 49.0962 44.3013 50.8272 44.3013 51.9474 44.2761 52.1583 44.38 52.3638 44.5648 52.4684 44.7792 52.5768 45.0154 52.6349 45.2556 52.6382 45.6181 52.678 45.9804 52.5608 46.2509 52.3162 46.5344 52.1566 46.6956 51.8435 46.6607 51.52Z" fill="#A5A5A5" fill-rule="nonzero" fill-opacity="1" transform="matrix(1.00207 0 0 1 0 247)"/><path d="M45.279 53.1827 45.279 53.1827C44.9431 53.188 44.6124 53.0987 44.3248 52.9251 44.0008 52.7585 43.799 52.4229 43.8037 52.0586 43.8037 50.9345 43.8915 49.2016 44.0672 46.7895 44.2389 44.276 44.3248 42.1976 44.3248 40.5544 44.3674 39.2543 44.3106 37.9527 44.155 36.6612 44.0672 35.7127 43.9091 35.5254 43.9091 35.5254 43.5637 35.5254 42.6972 35.9586 41.3155 38.7278 40.1856 40.976 38.9737 44.0964 37.5042 47.8141L36.9188 49.4592C36.7511 49.838 36.463 50.1509 36.0991 50.3491 35.7847 50.5419 35.4302 50.6601 35.0629 50.6945 34.6296 50.6945 34.372 50.6945 34.1964 50.5247 33.7632 50.3491 33.7632 49.828 33.7632 49.6583L32.8147 40.3964C32.6391 38.0545 32.3815 35.982 32.118 34.2491 32.0562 33.9053 32.0288 33.5562 32.0361 33.207 32.0474 32.6661 32.301 32.1589 32.7269 31.8253 33.1628 31.5263 33.6695 31.3466 34.1964 31.3043 34.8931 31.3043 35.1507 32.2585 35.2385 33.728 35.3205 35.0277 35.4961 37.1939 35.5839 40.1329L35.7537 42.2991C35.8415 43.5988 35.9293 44.6409 36.0172 45.5015 37.3988 42.0415 38.6985 39.0088 39.9104 36.5851 41.298 33.8159 42.6796 32.4869 44.0672 32.4869 45.1912 32.4869 45.8821 33.3533 46.2333 34.9985 46.5983 36.8523 46.7943 38.7354 46.8188 40.6247 46.9066 43.1363 46.9066 46.772 46.9066 51.5317 46.9122 52.0051 46.6954 52.4537 46.3212 52.7436 46.2509 53.0129 45.8001 53.1827 45.279 53.1827ZM43.9793 34.5711C44.9336 34.5711 45.1034 35.9586 45.1034 36.5616 45.1912 37.6037 45.279 38.9854 45.279 40.5427 45.279 42.1879 45.1912 44.354 45.0156 46.8656 44.8439 49.2075 44.758 50.9385 44.758 52.0586 44.758 52.1464 44.758 52.1464 44.8458 52.1464 44.9771 52.2212 45.1295 52.25 45.279 52.2284 45.5343 52.2372 45.7827 52.1446 45.9699 51.9708 46.142 51.855 46.24 51.6568 46.2275 51.4497 46.2275 46.69 46.2275 43.0543 46.1455 40.5427 46.1227 38.7115 45.9267 36.8865 45.5601 35.0921 45.3025 33.8803 44.8692 33.2714 44.2604 33.2714 43.3119 33.2714 42.1 34.4833 40.8881 36.8192 39.3352 39.9187 37.9477 43.0982 36.7314 46.3446 36.6436 46.6022 36.5558 46.7778 36.4738 47.0354 36.4012 47.237 36.313 47.4328 36.2104 47.6209L35.4317 49.266 35.3439 47.4452C35.3439 46.6666 35.1741 44.9336 34.9985 42.2523L34.8287 40.0861C34.6531 37.1588 34.5652 35.0687 34.4833 33.769 34.482 33.2389 34.393 32.7127 34.2198 32.2117 33.9365 32.1916 33.6566 32.2841 33.4412 32.4693 33.2269 32.5859 33.0942 32.8109 33.0957 33.0548 33.0826 33.3568 33.1042 33.6593 33.1601 33.9564 33.4177 35.7713 33.6753 37.8496 33.851 40.1856L34.8053 49.4475 34.8053 49.6231 35.1273 49.6231C35.3118 49.6039 35.4898 49.5439 35.6483 49.4475 35.8081 49.3451 35.9295 49.1928 35.9937 49.0143L36.5792 47.3691C37.9667 43.6515 39.2664 40.531 40.3905 38.1951 41.7312 35.7127 42.8553 34.5711 43.9793 34.5711Z" fill="#A5A5A5" fill-rule="nonzero" fill-opacity="1" transform="matrix(1.00207 0 0 1 0 247)"/><path d="M64.4 51.52C64.4 46.7603 64.4 43.1246 64.3122 40.613 64.2888 38.7527 64.0926 36.8986 63.7267 35.0746 63.3813 33.5992 62.8603 32.9084 61.9704 32.9084 60.7585 32.9084 59.5466 34.2081 58.2469 36.7197 56.6955 39.8479 55.3081 43.0546 54.0901 46.327 54.0023 46.5846 53.9145 46.7603 53.8325 47.0179L53.5691 47.5389C53.5691 46.7603 53.3993 45.0273 53.2237 42.2698L53.0539 40.1036C52.8783 37.1764 52.7904 35.0863 52.7026 33.7866 52.6148 32.4869 52.3572 31.796 52.1172 31.796 51.6865 31.7773 51.2613 31.8985 50.9053 32.1415 50.5702 32.3788 50.3748 32.7671 50.3842 33.1777 50.3769 33.4981 50.4063 33.8183 50.472 34.132 50.7296 35.8884 50.9931 37.9433 51.1629 40.2793L51.7483 46.1338 52.1055 49.547C52.0947 49.7368 52.1576 49.9235 52.2811 50.0681 52.3631 50.1559 52.6265 50.1559 52.9719 50.1559 53.2522 50.1491 53.5238 50.0572 53.7506 49.8924 54.0229 49.7424 54.2172 49.482 54.2833 49.1782L54.8688 47.5331C55.9678 44.4333 57.2403 41.3978 58.6801 38.4409 59.8042 36.0991 60.8404 34.9809 61.7069 34.9809 62.0523 34.9809 62.2924 35.502 62.4036 36.5382 62.5148 37.5745 62.5734 38.88 62.5734 40.5193 62.5734 42.1586 62.4856 44.2428 62.3158 46.7544 62.1401 49.0962 62.0523 50.8272 62.0523 51.9474 62.0271 52.1583 62.1308 52.3638 62.3158 52.4684 62.5306 52.5762 62.7666 52.6342 63.0066 52.6382 63.3585 52.6572 63.7027 52.5325 63.9609 52.2928 64.2595 52.1577 64.4369 51.8456 64.4 51.52Z" fill="#A5A5A5" fill-rule="nonzero" fill-opacity="1" transform="matrix(1.00207 0 0 1 0 247)"/><path d="M63.0242 53.1827 63.0242 53.1827C62.684 53.1902 62.3492 53.1009 62.0582 52.9251 61.7356 52.7579 61.536 52.422 61.543 52.0586 61.543 50.9345 61.6249 49.2016 61.8006 46.7895 61.9762 44.2779 62.0582 42.1996 62.0582 40.5544 62.0986 39.2543 62.0418 37.9529 61.8884 36.6612 61.8006 35.7069 61.6249 35.5371 61.6249 35.5371 61.2795 35.5371 60.4131 35.9703 59.0314 38.7395 57.9073 41.0813 56.6076 44.1081 55.2201 47.8258L54.6346 49.4709C54.4756 49.8375 54.2052 50.1448 53.8618 50.3491 53.5453 50.5421 53.1888 50.6602 52.8197 50.6945 52.3865 50.6945 52.1289 50.6945 51.9532 50.5247 51.52 50.3491 51.52 49.8046 51.52 49.6348L50.5599 40.3964C50.3842 38.0545 50.1266 35.982 49.869 34.2491 49.7952 33.8988 49.7598 33.5415 49.7636 33.1836 49.775 32.6427 50.0286 32.1355 50.4545 31.8019 50.8704 31.4654 51.389 31.2816 51.924 31.2808 52.6207 31.2808 52.8783 32.2351 52.9661 33.7046 53.0539 35.0043 53.2237 37.0827 53.3115 40.1095L53.4871 42.2757C53.5691 43.5754 53.6569 44.6175 53.7447 45.4781 55.1323 42.0181 56.4261 38.9854 57.638 36.5616 59.0255 33.7924 60.4072 32.4635 61.7947 32.4635 62.9188 32.4635 63.6155 33.3299 63.9609 34.9751 64.3256 36.8289 64.5218 38.712 64.5464 40.6013 64.6342 43.1129 64.6342 46.7485 64.6342 51.5083 64.6377 51.9813 64.4217 52.4291 64.0487 52.7202 63.9785 53.0129 63.5452 53.1827 63.0242 53.1827ZM61.7245 34.5711C62.6788 34.5711 62.8485 35.9586 62.8485 36.5616 62.9364 37.6037 63.0242 38.9854 63.0242 40.5427 63.0242 42.1879 62.9364 44.354 62.7666 46.8656 62.5909 49.2075 62.5031 50.9385 62.5031 52.0586 62.5031 52.1464 62.5031 52.1464 62.5909 52.1464 62.7221 52.2212 62.8749 52.25 63.0242 52.2284 63.2794 52.2372 63.5277 52.1446 63.715 51.9708 63.8895 51.8564 63.9896 51.6579 63.9785 51.4497 63.9785 46.69 63.9785 43.0543 63.8907 40.5427 63.8707 38.7113 63.6746 36.886 63.3052 35.0921 63.0476 33.8803 62.6144 33.2714 62.0113 33.2714 61.0571 33.2714 59.8452 34.4833 58.6333 36.8192 57.0729 39.9192 55.6756 43.0987 54.4473 46.3446 54.3595 46.6022 54.2775 46.7778 54.1897 47.0354 54.117 47.237 54.0289 47.4328 53.9262 47.6209L53.1476 49.266 53.0656 47.4452C53.0656 46.7544 52.89 44.9336 52.7143 42.2523L52.5445 40.0861C52.3689 37.1588 52.2869 35.0687 52.1991 33.769 52.1979 33.2389 52.1088 32.7127 51.9357 32.2117 51.6523 32.1916 51.3725 32.2841 51.157 32.4693 50.9427 32.5859 50.81 32.8109 50.8116 33.0548 50.8214 33.3587 50.8626 33.6609 50.9345 33.9564 51.1921 35.6835 51.4556 37.7618 51.6254 40.1856L52.5797 49.4475 52.5797 49.6231 52.9251 49.6231C53.1099 49.6049 53.288 49.5448 53.4461 49.4475 53.6059 49.3451 53.7273 49.1928 53.7916 49.0143L54.377 47.3691C55.7645 43.6515 57.0643 40.531 58.1883 38.1951 59.4763 35.783 60.6004 34.5711 61.7245 34.5711Z" fill="#A5A5A5" fill-rule="nonzero" fill-opacity="1" transform="matrix(1.00207 0 0 1 0 247)"/><path d="M82.8477 42.7967C82.8881 41.5994 82.4882 40.4287 81.7236 39.5065 80.8905 38.4975 79.9631 37.5703 78.9544 36.7373 78.6675 36.5063 78.407 36.2453 78.1757 35.9586 78.1757 35.8708 78.2577 35.783 78.3455 35.6073 78.4333 35.5254 78.5212 35.4376 78.5212 35.3497 78.5212 35.2619 78.4333 35.18 78.3455 35.0921 78.1178 35.0455 77.8871 35.0162 77.6547 35.0043 77.0856 34.9762 76.5189 35.0951 76.0096 35.3497 75.5763 35.5254 75.3187 35.783 75.3187 36.1284 75.3562 36.4553 75.5476 36.7446 75.8339 36.9071 76.3263 37.3735 76.8485 37.8076 77.3971 38.2068 78.3496 38.8485 79.2202 39.6034 79.9907 40.4549 80.606 41.1468 80.9455 42.0406 80.9449 42.9665 80.8952 43.9612 80.5638 44.9214 79.9907 45.7357 79.366 46.7851 78.5065 47.675 77.479 48.3351 76.4592 49.0274 75.2514 49.391 74.019 49.3772 71.4196 49.3772 70.1257 48.2473 70.1257 46.087 70.1328 44.5678 70.3295 43.0554 70.7112 41.5848 71.169 40.1386 71.7791 38.7451 72.532 37.4281 73.159 36.2527 73.913 35.1494 74.7801 34.1379 74.8679 34.05 74.9557 33.8803 75.1255 33.7046 75.2297 33.6046 75.317 33.4878 75.3831 33.3592 75.3849 33.1512 75.2409 32.9703 75.0377 32.926 74.8228 32.8291 74.5887 32.7812 74.3527 32.7855 73.7936 32.7974 73.2515 32.9769 72.7954 33.3007 72.2328 33.6962 71.7843 34.2335 71.4957 34.858 71.0625 35.5547 70.9103 35.9879 70.8049 36.0699 69.9062 37.7131 69.2083 39.4586 68.7265 41.2687 68.2816 42.8467 68.0497 44.4769 68.0357 46.1162 68.0011 47.4982 68.4601 48.8472 69.3295 49.9217 70.196 50.9638 71.5835 51.479 73.4277 51.479 75.1835 51.4992 76.9041 50.9868 78.3631 50.0095 79.7617 49.1204 80.9215 47.9023 81.7412 46.4617 82.3799 45.3477 82.764 44.106 82.8652 42.826Z" fill="#A5A5A5" fill-rule="nonzero" fill-opacity="1" transform="matrix(1.00207 0 0 1 0 247)"/><path d="M73.3282 52.0586 73.3282 52.0586C71.3376 52.0586 69.8623 51.4732 68.9138 50.4135 67.9525 49.2703 67.4572 47.8072 67.5263 46.3153 67.5737 44.6149 67.8354 42.9272 68.305 41.2921 68.7868 39.4298 69.4847 37.63 70.3833 35.9293 70.4712 35.8415 70.6409 35.4083 71.0742 34.7175 71.4477 34.0421 71.9488 33.4456 72.5495 32.9611 73.0764 32.5766 73.7122 32.3714 74.3644 32.3756 74.6999 32.3804 75.0283 32.4711 75.3187 32.6391 75.6278 32.8201 75.8228 33.1474 75.8339 33.5056 75.8339 33.6753 75.752 33.851 75.4885 34.1964 75.3445 34.349 75.2274 34.5252 75.1431 34.7175 74.2749 35.745 73.5214 36.864 72.8949 38.0545 72.1426 39.3428 71.5525 40.7193 71.1386 42.1527 70.7147 43.5566 70.5168 45.0191 70.5531 46.4851 70.5531 47.697 70.9044 49.2543 74.019 49.2543 75.1279 49.2458 76.2104 48.9142 77.1336 48.3 78.0879 47.6531 78.9105 46.8305 79.5574 45.8762 80.0908 45.1137 80.3917 44.2128 80.4239 43.2827 80.4549 42.4705 80.1399 41.6832 79.5574 41.1165 78.7946 40.3122 77.9533 39.5864 77.0458 38.9503 76.4744 38.5517 75.927 38.1196 75.4065 37.6564 75.067 37.374 74.8562 36.9667 74.8211 36.5265 74.855 35.9629 75.2356 35.4798 75.7754 35.3146 76.3456 35.0602 76.9668 34.942 77.5903 34.9692 77.8813 34.9732 78.1711 35.0026 78.4568 35.057 78.736 35.1684 78.9117 35.4478 78.89 35.7479 78.8718 35.9326 78.8115 36.1108 78.7144 36.2689 78.8976 36.4557 79.0931 36.6298 79.2998 36.79 80.3331 37.6289 81.2628 38.588 82.069 39.647 82.8512 40.6648 83.2768 41.9113 83.2809 43.1948 83.1831 44.5677 82.7288 45.8914 81.9636 47.0354 81.0983 48.5328 79.8952 49.8077 78.4509 50.7589 76.8608 51.5659 75.1109 52.0098 73.3282 52.0586ZM74.2766 33.2714C73.8141 33.2963 73.3668 33.446 72.9828 33.7046 72.4705 34.0981 72.0542 34.6025 71.765 35.18 71.3376 35.8708 71.1796 36.2162 71.0742 36.3919 70.1533 37.9815 69.4817 39.7034 69.0836 41.497 68.6832 43.0522 68.4519 44.6461 68.3928 46.2509 68.3272 47.5203 68.7622 48.7648 69.6047 49.7168 70.3833 50.5833 71.5952 51.0985 73.3282 51.0985 74.995 51.1344 76.6313 50.6515 78.0118 49.7168 79.3531 48.8522 80.4514 47.6592 81.2025 46.2509 81.8746 45.2163 82.2622 44.0229 82.3266 42.7909 82.3401 41.6909 81.9742 40.6199 81.2904 39.7582 80.4854 38.78 79.5873 37.882 78.609 37.0768 77.7425 36.386 77.6547 36.1225 77.6547 35.8649 77.6406 35.7429 77.6722 35.6201 77.7425 35.5195L77.479 35.5195C76.9773 35.5124 76.4791 35.5998 76.0096 35.7771 75.8339 35.8649 75.5763 36.0347 75.5763 36.1225 75.5763 36.1225 75.5763 36.2982 75.9217 36.6436 76.3848 37.0816 76.8778 37.4865 77.3971 37.8555 78.3818 38.5253 79.2822 39.3116 80.0785 40.1973 80.7564 40.9593 81.1258 41.9466 81.1147 42.9665 81.0737 44.0571 80.7137 45.1117 80.0785 45.9992 79.3689 47.0845 78.4591 48.0244 77.3971 48.7684 76.3052 49.5254 75.002 49.9187 73.6736 49.8924 70.0379 49.8924 69.2593 47.9019 69.2593 46.1689 69.2552 44.6089 69.4882 43.0573 69.9501 41.5673 70.4073 40.0937 71.0156 38.6714 71.765 37.3227 72.4266 36.1207 73.2117 34.9905 74.1068 33.9505 74.2128 33.7991 74.3281 33.6544 74.4522 33.5173 74.5401 33.4295 74.5401 33.4295 74.5401 33.3416L74.4522 33.3416C74.5401 33.2538 74.4522 33.2538 74.2766 33.2538Z" fill="#A5A5A5" fill-rule="nonzero" fill-opacity="1" transform="matrix(1.00207 0 0 1 0 247)"/><path d="M103.971 30.6778C103.883 30.364 103.736 30.0698 103.538 29.8113 103.28 29.3781 103.017 29.2259 102.847 29.2259 102.562 29.2033 102.281 29.2985 102.068 29.4893 101.893 29.6591 101.635 30.0045 101.289 30.4378 99.4968 32.8747 98.0671 35.5586 97.0449 38.4058 95.8705 41.5213 94.9736 44.7342 94.3636 48.0073 94.1399 49.1493 93.9953 50.3054 93.9303 51.4673L92.976 49.307C90.7279 44.114 89.3404 40.9057 88.7373 39.6938 87.7438 37.4631 86.6157 35.2949 85.3593 33.2011 85.2498 33.1058 85.162 32.988 85.1017 32.8557 85.0139 32.6859 84.8382 32.5981 84.7504 32.5103 84.5724 32.4052 84.371 32.3468 84.1649 32.3405 83.8195 32.3405 83.3863 32.5981 82.9531 33.2011 82.6246 33.5952 82.4203 34.0783 82.3676 34.5887 82.3676 34.7643 82.4554 34.8463 82.5432 35.0219 82.6258 35.1294 82.7528 35.194 82.8886 35.1975 82.9765 35.1975 83.0643 35.1097 83.1521 35.0219 83.2399 34.9341 83.3219 34.8463 83.4097 34.8463 83.7551 34.8463 84.2762 35.5429 84.967 36.8368 85.6579 38.1307 86.5243 39.9573 87.6484 42.2932L89.4048 46.1865C90.2712 48.0951 91.1611 49.91 91.9164 51.5551 92.6716 53.2003 93.1283 54.0667 93.3039 54.0667 93.8191 54.131 94.3407 54.0084 94.7734 53.7213 95.0456 53.4324 95.2265 53.0701 95.2944 52.6792L95.4642 51.2097C95.6399 49.9978 95.8096 49.1313 95.8975 48.7859 96.5731 45.4426 97.5531 42.1681 98.8247 39.003 99.7749 36.4972 101.119 34.1591 102.806 32.0771 102.894 31.9892 103.151 31.8195 103.497 31.556 103.842 31.0408 104.018 30.8652 104.018 30.6954Z" fill="#A5A5A5" fill-rule="nonzero" fill-opacity="1" transform="matrix(1.00207 0 0 1 0 247)"/><path d="M93.1517 54.2248C92.8063 54.2248 92.6306 54.2248 91.3309 51.4497 90.5523 49.8046 89.6858 47.9897 88.8193 46.087L87.0629 42.1879C86.2702 40.322 85.3733 38.5022 84.3757 36.7373 83.7902 35.6952 83.4273 35.2619 83.3395 35.0921 83.2229 35.276 83.0333 35.4017 82.8184 35.4376 82.5479 35.4327 82.2938 35.3058 82.1276 35.0921 81.9537 34.9029 81.8606 34.6525 81.87 34.3955 81.9402 33.7946 82.1797 33.2261 82.5608 32.7562 82.8857 32.1819 83.4636 31.7953 84.1181 31.7141 84.4284 31.695 84.7352 31.7863 84.9846 31.9717 85.1672 32.0722 85.3171 32.2224 85.4178 32.4049 85.4799 32.536 85.5677 32.6534 85.6754 32.7503 86.3663 33.6168 87.4962 35.6776 89.1413 39.3308 89.7268 40.5427 91.1319 43.7452 93.38 49.026L93.5556 49.547C93.6376 49.026 93.7254 48.5108 93.8132 47.9019 94.4496 44.5932 95.3822 41.3484 96.6 38.2068 97.6515 35.3298 99.1104 32.6188 100.932 30.1568 101.177 29.8033 101.466 29.4826 101.793 29.2025 102.113 28.9493 102.516 28.826 102.923 28.8571 103.268 28.8571 103.508 29.1147 103.959 29.7235 104.41 30.3324 104.48 30.59 104.48 30.8476 104.48 31.2808 104.135 31.5384 103.702 31.8019 103.268 32.0653 103.181 32.2351 103.116 32.2351 101.734 33.7924 100.435 36.1284 99.2228 39.0732 97.9787 42.2178 96.9999 45.4608 96.2956 48.7684 96.2077 49.2016 96.038 49.9803 95.8623 51.1921L95.6633 52.6909C95.5942 53.1936 95.3471 53.6547 94.9666 53.9906 94.3753 54.1517 93.7646 54.2305 93.1517 54.2248ZM83.2809 34.1379C83.7141 34.1379 84.2352 34.4833 85.2714 36.3919 85.9623 37.6857 86.9166 39.5943 87.9587 41.8424L89.6858 45.7357C90.5523 47.6443 91.4421 49.4592 92.1974 51.1043 92.8882 52.5797 93.2395 53.0949 93.3214 53.3583 93.5931 53.3889 93.8677 53.3271 94.1001 53.1827L92.455 49.4592C90.2068 44.1901 88.7373 41.0638 88.2163 39.8519 86.659 36.3919 85.5349 34.2257 84.8382 33.447 84.7334 33.3475 84.6462 33.2307 84.5806 33.1016L84.323 32.8381C84.2188 32.7713 84.0947 32.7423 83.9717 32.7562 83.802 32.7562 83.4565 33.0138 83.1931 33.447 82.9484 33.7509 82.7721 34.1045 82.6779 34.4833 83.0233 34.1379 83.1931 34.1379 83.2809 34.1379ZM102.847 29.6357C102.686 29.639 102.531 29.7016 102.414 29.8113 102.144 30.0665 101.911 30.3582 101.723 30.6778 99.9576 33.084 98.5572 35.7374 97.566 38.5522 96.3822 41.6389 95.4824 44.8272 94.8788 48.0775 94.661 49.1907 94.5181 50.3174 94.4514 51.4497L94.4514 53.0949C94.6627 52.8794 94.8103 52.6101 94.8788 52.3162L95.0544 50.9345C95.23 49.7227 95.3998 48.8562 95.4876 48.4229 96.1515 45.0481 97.1316 41.7433 98.4149 38.5522 99.3692 35.9719 100.755 33.5725 102.513 31.4565 102.748 31.2313 103.01 31.0348 103.292 30.871 103.421 30.8056 103.538 30.7185 103.637 30.6134 103.511 30.4473 103.395 30.2733 103.292 30.0924 102.935 29.8113 102.847 29.7235 102.847 29.6357Z" fill="#A5A5A5" fill-rule="nonzero" fill-opacity="1" transform="matrix(1.00207 0 0 1 0 247)"/><path d="M117.565 48.6805C117.565 48.1595 117.477 47.5565 117.477 46.69 117.477 45.8235 117.389 44.9336 117.389 44.0964 117.389 43.2592 117.302 42.1 117.302 40.8062 117.302 39.5123 117.214 38.5522 117.214 38.1189 117.132 37.3403 116.956 36.9949 116.699 36.9949L116.002 37.1705C116.441 36.437 116.681 35.6015 116.699 34.7467 116.712 34.1557 116.529 33.577 116.178 33.1016 115.887 32.6196 115.467 32.2283 114.966 31.9717 114.547 31.715 114.069 31.568 113.578 31.5443 113.035 31.576 112.504 31.7216 112.021 31.9717 111.163 32.4423 110.351 32.9932 109.597 33.6168 107.9 35.0657 106.361 36.6907 105.007 38.4644 103.58 40.2894 102.307 42.2301 101.202 44.2662 100.247 46.1689 99.7322 47.6443 99.7322 48.7684 99.7222 49.5461 99.9646 50.3062 100.423 50.9345 100.958 51.4572 101.667 51.7655 102.414 51.801 104.322 51.7507 106.156 51.0459 107.607 49.8046 109.162 48.5632 110.531 47.1064 111.675 45.4781 112.712 43.9208 113.924 42.1879 115.141 40.1095 115.529 40.4604 115.721 40.9782 115.657 41.497L115.569 43.0543C115.487 46.3446 115.399 48.3234 115.399 48.944 115.365 49.6249 115.483 50.3049 115.744 50.9345 116.002 51.52 116.33 51.801 116.781 51.801 117.044 51.801 117.302 51.6254 117.565 51.2156 117.803 50.8845 117.95 50.497 117.993 50.0915 117.981 49.8899 117.888 49.7016 117.735 49.5704 117.652 49.2875 117.594 48.9974 117.565 48.704ZM103.104 49.4592C102.326 49.4592 101.98 49.026 101.98 48.2473 102.109 46.8265 102.586 45.4592 103.368 44.2662 104.335 42.4661 105.464 40.7574 106.74 39.1611 107.909 37.6584 109.214 36.2669 110.639 35.0043 111.675 34.05 112.542 33.6168 113.233 33.6168 113.764 33.5713 114.282 33.7903 114.62 34.2023 114.955 34.619 115.137 35.1375 115.135 35.6717 115.14 36.5925 114.965 37.5053 114.62 38.359 113.505 40.2952 112.292 42.1731 110.985 43.9852 109.955 45.4423 108.732 46.7522 107.349 47.8785 106.128 48.8208 104.645 49.3645 103.104 49.4358Z" fill="#A5A5A5" fill-rule="nonzero" fill-opacity="1" transform="matrix(1.00207 0 0 1 0 247)"/><path d="M102.501 52.1464 102.501 52.1464C101.596 52.1817 100.716 51.8356 100.078 51.1921 99.5109 50.5124 99.2035 49.6535 99.2111 48.7684 99.2111 47.5565 99.7263 46.087 100.768 44.0847 101.869 42.0168 103.144 40.0465 104.58 38.1951 105.94 36.3962 107.512 34.7685 109.263 33.3475 110.044 32.6844 110.885 32.0963 111.775 31.5911 112.336 31.3037 112.959 31.1551 113.59 31.1579 114.151 31.1718 114.696 31.3533 115.153 31.6789 115.666 32.0217 116.106 32.4636 116.447 32.9787 116.808 33.5497 117.01 34.2064 117.032 34.8814 117.055 35.4857 116.936 36.0869 116.687 36.6377 117.202 36.7256 117.466 37.2232 117.553 38.1951 117.553 38.6283 117.635 39.4948 117.635 40.8764L117.811 46.8539C117.811 47.7204 117.899 48.3234 117.899 48.8445 117.899 48.9323 117.981 49.0143 118.069 49.1899 118.3 49.426 118.452 49.7292 118.502 50.0564 118.474 50.5594 118.292 51.0417 117.981 51.438 117.741 51.9056 117.289 52.2284 116.769 52.3045 116.096 52.2944 115.512 51.8409 115.335 51.1921 115.051 50.5051 114.904 49.7693 114.901 49.026 114.901 48.3351 114.989 46.3446 115.077 43.1714L115.159 41.6141 115.159 41.1809C114.035 42.9958 113.086 44.5531 112.132 45.9406 110.934 47.5779 109.538 49.0606 107.975 50.3549 106.225 51.3678 104.404 52.1464 102.501 52.1464ZM113.666 31.9717C113.184 31.9731 112.709 32.0938 112.284 32.3229 111.438 32.7363 110.651 33.26 109.942 33.8803 108.275 35.3 106.765 36.8959 105.44 38.64 104.021 40.4211 102.776 42.3346 101.723 44.354 100.768 46.1689 100.247 47.6443 100.247 48.5927 100.188 49.2539 100.399 49.9111 100.833 50.4135 101.249 50.8801 101.853 51.1339 102.478 51.1043 104.281 51.0696 106.01 50.3857 107.349 49.1782 108.873 47.9625 110.214 46.5329 111.33 44.9336 112.366 43.4641 113.578 41.6492 114.79 39.5709L115.054 39.1376 115.487 39.4831C115.976 39.9301 116.231 40.5786 116.178 41.2394L116.09 42.7967C116.002 46.087 115.92 47.9897 115.92 48.6805 115.891 49.3062 116.009 49.93 116.265 50.5013 116.523 51.0868 116.781 51.0868 116.851 51.0868 116.939 51.0868 117.027 50.9989 117.284 50.6535 117.497 50.414 117.62 50.1074 117.63 49.7871 117.63 49.7871 117.63 49.7051 117.46 49.6173 117.197 49.4045 117.039 49.0886 117.027 48.7508 117.027 48.2297 116.939 47.6267 116.939 46.7603L116.763 40.7886C116.763 39.4889 116.681 38.5346 116.681 38.1014 116.671 37.9038 116.642 37.7077 116.593 37.5159L115.206 37.9492C115.124 38.1189 115.124 38.3824 115.036 38.5346 113.647 40.7906 112.435 42.6953 111.4 44.2487 110.337 45.7595 109.052 47.1016 107.589 48.2297 106.303 49.3206 104.685 49.9401 102.999 49.9861 101.963 49.9861 101.36 49.4007 101.36 48.2297 101.36 47.1935 101.787 45.806 102.741 43.9911 103.743 42.1624 104.903 40.4248 106.207 38.7981 107.378 37.244 108.712 35.8209 110.188 34.5535 111.312 33.5173 112.267 33.084 113.116 33.084 113.79 33.0565 114.439 33.3443 114.872 33.8627 115.281 34.3765 115.489 35.0216 115.457 35.6776 115.443 36.2007 115.384 36.7216 115.282 37.2349L115.457 36.9773C115.86 36.3281 116.064 35.5749 116.043 34.8111 116.048 34.3164 115.897 33.8327 115.61 33.4295 115.356 33.0013 115 32.6431 114.573 32.3873 114.332 32.1429 114.009 31.995 113.666 31.9717ZM103.128 48.9499C104.597 48.9135 106.007 48.36 107.109 47.3867 108.465 46.2898 109.661 45.0089 110.663 43.5812 111.699 42.1059 112.911 40.2032 114.21 38.037 114.494 37.2602 114.641 36.4401 114.644 35.6132 114.629 35.1739 114.477 34.7502 114.21 34.4013 113.959 34.0901 113.566 33.929 113.168 33.9739 112.735 33.9739 112.044 34.2315 110.827 35.2678 109.43 36.5095 108.156 37.8818 107.021 39.366 105.713 40.9329 104.574 42.6344 103.625 44.4419 102.759 46.087 102.326 47.2989 102.326 48.2473 102.414 48.8328 102.671 48.944 103.104 48.944Z" fill="#A5A5A5" fill-rule="nonzero" fill-opacity="1" transform="matrix(1.00207 0 0 1 0 247)"/><path d="M139.461 34.3955C139.433 34.0133 139.283 33.6502 139.034 33.3592 138.802 33.0597 138.456 32.8707 138.079 32.8381 137.904 32.8381 137.734 33.0138 137.646 33.3592 137.538 33.6044 137.356 33.8093 137.125 33.9447 133.489 34.7233 131.066 35.2385 129.854 35.4141L129.854 34.3135C129.766 33.0138 129.766 31.8897 129.766 30.9354 129.765 29.8947 129.824 28.8548 129.942 27.8208 130.057 27.3374 130.116 26.8424 130.117 26.3455 130.117 26.0879 130.117 26 130.029 25.9122 129.942 25.8244 129.766 25.8303 129.508 25.8303 128.974 25.7813 128.474 26.1022 128.297 26.6089 128.089 27.1084 127.943 27.6313 127.863 28.1662 127.78 29.0006 127.75 29.8396 127.775 30.6778 127.775 31.3687 127.775 32.3229 127.863 33.5348 127.93 34.2823 127.959 35.0326 127.951 35.783 127.26 35.8708 126.048 36.1284 124.228 36.4738 123.715 36.6164 123.195 36.7318 122.67 36.8192 122.074 36.9698 121.464 37.058 120.85 37.0827 120.439 37.0728 120.03 37.1302 119.638 37.2525 119.38 37.3403 119.292 37.6037 119.292 37.9492 119.293 38.2661 119.457 38.5603 119.725 38.7278 120.013 38.9015 120.344 38.9907 120.68 38.9854 120.937 38.9854 121.804 38.8156 123.273 38.5522 124.918 38.2068 126.476 37.8613 128.039 37.6857 128.039 39.0732 128.039 40.5427 128.121 42.0181 128.203 43.4934 128.209 44.7873 128.297 45.9113 128.384 47.2111 128.472 48.3351 128.642 49.3714 128.812 50.4076 128.987 51.1277 129.075 51.5376 129.121 51.7023 129.21 51.8517 129.333 51.9708 129.451 52.0796 129.605 52.142 129.766 52.1464 130.113 52.1364 130.447 52.0153 130.72 51.801 131.007 51.6353 131.2 51.3451 131.241 51.0165 131.241 50.9345 131.066 50.4311 130.808 49.547 130.512 48.3535 130.317 47.1373 130.223 45.9113 130.141 44.6995 130.053 43.3997 130.053 41.8132 130.053 40.2266 129.971 38.8156 129.971 37.3403L132.652 36.9071C132.916 36.8192 134.409 36.6495 136.897 36.2162 137.647 36.1456 138.379 35.9476 139.063 35.6308 139.33 35.2823 139.48 34.8579 139.49 34.4189Z" fill="#A5A5A5" fill-rule="nonzero" fill-opacity="1" transform="matrix(1.00207 0 0 1 0 247)"/><path d="M129.596 52.4919C129.34 52.4998 129.091 52.4049 128.905 52.2284 128.691 52.0503 128.539 51.8082 128.472 51.5376 128.216 50.8096 128.042 50.0557 127.951 49.2894 127.775 48.2473 127.693 47.0354 127.606 45.8235 127.518 44.6995 127.43 43.3997 127.43 41.9303 127.43 40.6305 127.342 39.3308 127.342 38.1189L123.191 38.8976C122.313 39.1345 121.412 39.2797 120.504 39.3308 120.075 39.3376 119.653 39.2175 119.292 38.9854 118.672 38.576 118.5 37.7408 118.909 37.12 119.01 36.9678 119.14 36.8376 119.292 36.7373 119.724 36.5319 120.21 36.4704 120.68 36.5616 121.025 36.5616 121.628 36.4738 122.436 36.3919 122.919 36.2679 123.41 36.1798 123.906 36.1284 125.463 35.8708 126.587 35.6073 127.284 35.5429 127.294 34.9348 127.265 34.3265 127.196 33.7222 127.108 32.5103 127.108 31.474 127.108 30.8652 127.083 30.027 127.113 29.188 127.196 28.3536 127.246 27.7583 127.393 27.175 127.629 26.6265 127.873 25.9321 128.538 25.4752 129.274 25.4965 129.532 25.4965 129.86 25.4965 130.053 25.76 130.239 25.9748 130.332 26.2551 130.31 26.5387 130.297 27.0325 130.24 27.5242 130.141 28.0081 129.979 29.0399 129.92 30.0852 129.965 31.1286 129.965 32.1649 129.965 33.2889 130.053 34.5008L130.053 35.0863C131.353 34.8228 133.689 34.3896 136.803 33.6988 136.932 33.6217 137.026 33.498 137.067 33.3533 137.324 32.8323 137.582 32.5747 137.927 32.5747 138.434 32.6251 138.901 32.8733 139.227 33.2655 139.61 33.6241 139.823 34.1284 139.812 34.6531 139.825 35.2447 139.53 35.8005 139.034 36.1225 138.306 36.4884 137.506 36.6884 136.692 36.708 134.186 37.1412 132.799 37.3988 132.453 37.3988L130.199 37.7443C130.199 39.044 130.199 40.4315 130.287 41.8424 130.287 43.3997 130.375 44.7697 130.463 45.9406 130.492 47.1396 130.665 48.3307 130.978 49.4885 131.241 50.3549 131.411 50.876 131.411 50.9638L131.411 51.0458C131.372 51.5105 131.116 51.9294 130.72 52.1757 130.376 52.369 129.991 52.4773 129.596 52.4919ZM128.297 36.9949 128.297 37.5159C128.297 38.8976 128.297 40.3729 128.384 41.8424 128.384 43.3119 128.472 44.6116 128.554 45.7357 128.614 46.8669 128.731 47.9944 128.905 49.1138 128.972 49.7914 129.115 50.4593 129.333 51.1043 129.421 51.3678 129.508 51.3678 129.508 51.4497L129.596 51.4497C129.846 51.4295 130.085 51.3403 130.287 51.1921 130.375 51.1043 130.545 51.0165 130.545 50.8467 130.545 50.6769 130.375 50.2613 130.117 49.547 129.78 48.3324 129.583 47.083 129.532 45.8235 129.444 44.6116 129.356 43.23 129.356 41.6727 129.356 40.1153 129.274 38.64 129.274 37.1705L129.274 36.7373 132.301 36.2162C132.564 36.1284 134.057 35.9586 136.546 35.5254 137.237 35.4851 137.914 35.308 138.536 35.0043 138.778 34.8626 138.913 34.5918 138.882 34.3135 138.877 34.0412 138.75 33.7854 138.536 33.6168 138.36 33.447 138.191 33.2714 138.015 33.2714 137.967 33.3186 137.936 33.3804 137.927 33.447 137.787 33.8514 137.47 34.1702 137.067 34.3135 133.343 35.18 131.001 35.6073 129.707 35.783L129.186 35.8708 129.099 34.2257C129.011 33.0138 129.011 31.8019 129.011 30.7598 128.989 29.6861 129.077 28.613 129.274 27.5573 129.367 27.1019 129.424 26.6399 129.444 26.1757L129.444 26.0879 129.274 26.0879C128.925 26.0601 128.603 26.2758 128.496 26.6089 128.326 27.0845 128.21 27.5773 128.15 28.0784 128.068 28.8836 128.039 29.6932 128.062 30.5022 128.062 31.193 128.062 32.1473 128.15 33.3592 128.232 34.3135 128.232 35.1156 128.232 35.6073L128.232 36.0406 127.887 36.1284C127.196 36.2162 125.984 36.4738 124.163 36.8192 123.653 36.9732 123.133 37.0905 122.606 37.1705 121.981 37.3125 121.344 37.3987 120.703 37.4281 120.354 37.432 120.006 37.4614 119.661 37.5159 119.661 37.5159 119.579 37.5159 119.579 37.7735 119.579 38.0311 119.661 38.0311 119.837 38.2068 120.034 38.3552 120.283 38.4185 120.528 38.3824 121.377 38.3217 122.218 38.1766 123.039 37.9492 124.684 37.6037 126.242 37.2525 127.799 37.0827Z" fill="#A5A5A5" fill-rule="nonzero" fill-opacity="1" transform="matrix(1.00207 0 0 1 0 247)"/><path d="M155.046 40.9818C154.958 40.9818 154.788 41.1575 154.701 41.4151 154.585 41.5959 154.499 41.7934 154.443 42.0005 153.581 43.8425 152.474 45.5597 151.153 47.1057 149.868 48.5772 147.995 49.401 146.042 49.3538 144.841 49.4237 143.672 48.956 142.851 48.0775 142.072 47.2111 141.727 45.9992 141.727 44.354 141.739 43.0944 141.92 41.842 142.265 40.6305 144.105 40.3551 145.905 39.8618 147.628 39.1611 149.144 38.5789 150.572 37.791 151.873 36.8192 152.909 35.9586 153.518 35.0043 153.518 34.05 153.533 33.2523 153.14 32.5022 152.476 32.0595 151.692 31.5866 150.791 31.3469 149.876 31.3687 148.046 31.4203 146.295 32.1266 144.941 33.3592 143.306 34.7747 141.98 36.5127 141.048 38.4644 140.109 40.442 139.606 42.5983 139.572 44.7873 139.572 47.0354 140.158 48.7684 141.329 49.8046 142.518 50.9259 144.11 51.5192 145.743 51.4497 147.734 51.4968 149.656 50.7143 151.047 49.2894 152.449 48.0027 153.569 46.44 154.338 44.6995 155.028 43.0543 155.462 41.9303 155.462 41.497 155.286 41.1516 155.204 40.976 155.028 40.976ZM151.41 34.4833C151.41 34.9165 150.977 35.5254 150.023 36.1284 148.923 36.9131 147.732 37.5601 146.475 38.0545 145.22 38.6333 143.872 38.9861 142.494 39.0967 142.754 38.1805 143.196 37.3262 143.793 36.5851 144.44 35.6308 145.263 34.8082 146.217 34.1613 147.09 33.5016 148.15 33.1384 149.244 33.125 149.787 33.0927 150.328 33.2123 150.807 33.4704 151.183 33.6768 151.41 34.0781 151.393 34.5067Z" fill="#A5A5A5" fill-rule="nonzero" fill-opacity="1" transform="matrix(1.00207 0 0 1 0 247)"/><path d="M145.526 52.0586 145.526 52.0586C143.774 52.0879 142.075 51.4615 140.761 50.3022 139.461 49.0904 138.858 47.2755 138.858 44.9336 138.87 42.6783 139.403 40.4563 140.415 38.4409 141.35 36.42 142.708 34.6231 144.396 33.1719 145.823 31.876 147.669 31.1399 149.595 31.0993 150.602 31.066 151.596 31.3374 152.447 31.878 153.293 32.3354 153.774 33.2644 153.658 34.2198 153.658 35.3439 153.073 36.386 151.843 37.3344 150.545 38.3673 149.091 39.1874 147.535 39.7641 145.884 40.4231 144.172 40.9172 142.424 41.2394 142.158 42.3149 142.013 43.4164 141.99 44.5238 141.905 45.7403 142.277 46.9447 143.032 47.9019 143.759 48.6995 144.815 49.1147 145.889 49.026 147.71 49.0955 149.462 48.3302 150.649 46.9476 151.942 45.4628 153.021 43.8034 153.852 42.0181 153.969 41.8386 154.057 41.6407 154.109 41.4326 154.197 41.175 154.46 40.654 154.894 40.654 155.151 40.654 155.672 40.7418 155.672 41.6961 155.672 42.0415 155.585 42.8201 154.542 45.1561 153.72 46.9363 152.577 48.5498 151.17 49.9159 149.642 51.3406 147.615 52.1097 145.526 52.0586ZM149.677 31.8897C147.965 31.9297 146.33 32.6084 145.093 33.7924 141.907 36.6095 140.035 40.6236 139.924 44.8751 139.924 47.0354 140.445 48.5927 141.569 49.5587 142.671 50.6055 144.148 51.1664 145.667 51.116 147.539 51.1435 149.345 50.4277 150.69 49.1255 152.041 47.8481 153.129 46.3186 153.893 44.6233 154.181 44.0423 154.413 43.4345 154.583 42.8084 153.75 44.4964 152.703 46.0704 151.469 47.4921 150.101 49.0711 148.101 49.9594 146.012 49.9159 144.667 49.9965 143.359 49.4548 142.465 48.4464 141.617 47.2971 141.189 45.8918 141.253 44.4653 141.262 43.1777 141.437 41.8967 141.774 40.654L141.861 40.3964 142.119 40.3085C143.928 40.032 145.697 39.5386 147.388 38.8391 148.861 38.2614 150.241 37.4725 151.486 36.4972 152.441 35.7186 152.956 34.8521 152.956 34.0735 152.997 33.4293 152.658 32.8203 152.089 32.5161 151.381 32.1 150.568 31.8967 149.748 31.9307ZM141.891 39.6763 142.061 38.9854C142.329 38.0191 142.77 37.109 143.36 36.2982 144.035 35.288 144.885 34.4075 145.872 33.6988 146.834 33.0082 147.978 32.6172 149.162 32.5747 149.793 32.5759 150.414 32.7243 150.977 33.0079 151.551 33.2735 151.922 33.8448 151.931 34.4774 151.931 35.0629 151.41 35.7771 150.286 36.5558 149.173 37.3622 147.948 38.0031 146.651 38.4585 145.34 39.0149 143.962 39.3949 142.552 39.5884ZM149.162 33.6168C148.188 33.6451 147.248 33.979 146.475 34.5711 145.578 35.1955 144.814 35.9915 144.227 36.9129 143.827 37.4505 143.506 38.0418 143.272 38.6693 144.334 38.4474 145.37 38.1178 146.364 37.6857 147.562 37.2268 148.697 36.617 149.742 35.8708 150.866 35.0043 150.954 34.6589 150.954 34.5711 150.935 34.3085 150.766 34.0803 150.52 33.9856 150.104 33.7375 149.623 33.6156 149.139 33.6344Z" fill="#A5A5A5" fill-rule="nonzero" fill-opacity="1" transform="matrix(1.00207 0 0 1 0 247)"/><path d="M183.528 50.5891 181.274 50.5891 181.274 37.1705 165.52 37.1705 165.52 50.5891 163.272 50.5891 163.272 21.4101 165.52 21.4101 165.52 35.0921 181.274 35.0921 181.274 21.4101 183.528 21.4101Z" fill="#A5A5A5" fill-rule="nonzero" fill-opacity="1" transform="matrix(1.00207 0 0 1 0 247)"/><path d="M197.117 51.0165C194.613 51.1152 192.208 50.031 190.624 48.0892 188.904 45.9341 188.013 43.2339 188.112 40.4783L188.112 39.3308C188.112 36.2162 188.979 33.6168 190.624 31.6263 192.126 29.7119 194.426 28.5956 196.859 28.5995 199.078 28.4922 201.221 29.4199 202.661 31.1111 204.043 32.8674 204.733 35.0921 204.733 37.9492L204.733 39.8519 190.366 39.8519 190.366 40.5427C190.277 42.7359 190.915 44.8971 192.181 46.69 193.311 48.2799 195.168 49.1915 197.117 49.1138 198.307 49.1191 199.485 48.8842 200.583 48.4229 201.554 48.0128 202.435 47.4161 203.176 46.6666L204.13 48.3117C203.336 49.1769 202.361 49.8565 201.273 50.3022 199.943 50.793 198.534 51.0351 197.117 51.0165ZM196.947 30.5256C195.277 30.5043 193.686 31.2352 192.615 32.5161 191.44 33.9397 190.743 35.6974 190.624 37.5393L190.712 37.6272 202.485 37.6272 202.485 37.1061C202.543 35.3996 202.026 33.7232 201.016 32.3464 200.009 31.1464 198.512 30.468 196.947 30.5022Z" fill="#A5A5A5" fill-rule="nonzero" fill-opacity="1" transform="matrix(1.00207 0 0 1 0 247)"/><path d="M221.618 50.5891C221.442 49.8046 221.354 49.2016 221.273 48.5927 221.199 48.0476 221.17 47.4975 221.185 46.9476 220.445 48.1699 219.4 49.1786 218.152 49.8749 216.813 50.6504 215.285 51.0395 213.738 50.9989 212.002 51.0808 210.308 50.4457 209.054 49.2426 207.906 47.999 207.312 46.3424 207.409 44.6526 207.351 42.7769 208.268 41.0048 209.833 39.969 211.478 38.7571 213.556 38.1482 216.15 38.1482L221.302 38.1482 221.302 35.5254C221.397 34.1684 220.889 32.8386 219.914 31.8897 218.802 30.9625 217.378 30.4973 215.933 30.59 214.561 30.5395 213.213 30.968 212.122 31.8019 211.19 32.5288 210.647 33.6467 210.652 34.8287L208.574 34.8287 208.574 34.7467C208.486 33.1016 209.159 31.7141 210.565 30.4144 213.798 27.9954 218.238 27.9954 221.472 30.4144 222.861 31.6282 223.554 33.3592 223.55 35.6073L223.55 46.2509C223.535 47.0033 223.565 47.7559 223.638 48.5049 223.74 49.2329 223.884 49.9542 224.071 50.6652L221.647 50.6652ZM214.083 48.8328C215.708 48.8674 217.307 48.4147 218.673 47.5331 219.917 46.7594 220.848 45.5714 221.302 44.1784L221.302 40.0275 216.191 40.0275C214.55 39.9527 212.933 40.4402 211.607 41.4092 210.492 42.177 209.815 43.434 209.786 44.7873 209.722 45.8793 210.131 46.9461 210.91 47.7145 211.766 48.5146 212.913 48.9274 214.083 48.8562Z" fill="#A5A5A5" fill-rule="nonzero" fill-opacity="1" transform="matrix(1.00207 0 0 1 0 247)"/><path d="M231.313 50.5891 229.059 50.5891 229.059 19.32 231.313 19.32Z" fill="#A5A5A5" fill-rule="nonzero" fill-opacity="1" transform="matrix(1.00207 0 0 1 0 247)"/><path d="M240.399 23.3187 240.399 28.8571 244.901 28.8571 244.901 30.8476 240.399 30.8476 240.399 44.9571C240.325 46.0203 240.567 47.0817 241.096 48.0073 241.584 48.5968 242.323 48.9186 243.087 48.8737 243.349 48.8884 243.612 48.8587 243.865 48.7859 244.189 48.7619 244.509 48.703 244.82 48.6103L245.165 50.4311C244.82 50.6067 244.468 50.6887 244.041 50.8643 243.585 50.9694 243.121 51.0263 242.653 51.0341 241.359 51.0999 240.11 50.5561 239.275 49.5646 238.497 48.6103 238.063 47.053 238.063 44.9746L238.063 30.8476 234.516 30.8476 234.516 28.8571 238.063 28.8571 238.063 23.3187Z" fill="#A5A5A5" fill-rule="nonzero" fill-opacity="1" transform="matrix(1.00207 0 0 1 0 247)"/><path d="M250.879 32.5805C251.517 31.3424 252.473 30.2958 253.648 29.5479 254.85 28.8322 256.231 28.4729 257.629 28.5116 259.795 28.5116 261.441 29.2025 262.652 30.6778 263.777 32.0595 264.38 34.3135 264.38 37.2525L264.38 50.5891 262.131 50.5891 262.131 37.1705C262.131 34.8287 261.698 33.0723 260.832 32.1473 259.927 31.0922 258.584 30.5169 257.196 30.59 255.773 30.5535 254.376 30.9787 253.215 31.8019 252.134 32.6325 251.345 33.7845 250.961 35.0921L250.961 50.5891 248.713 50.5891 248.713 19.32 250.961 19.32 250.961 32.5805Z" fill="#A5A5A5" fill-rule="nonzero" fill-opacity="1" transform="matrix(1.00207 0 0 1 0 247)"/><path d="M277.107 48.944C278.538 48.9794 279.93 48.4853 281.018 47.5565 282.138 46.6173 282.748 45.2042 282.663 43.7452L284.742 43.7452 284.742 43.833C284.851 45.7728 284.013 47.645 282.493 48.8562 281.019 50.1739 279.101 50.885 277.125 50.8467 274.622 50.945 272.23 49.8122 270.72 47.8141 269.159 45.8235 268.378 43.228 268.378 40.0275L268.378 39.1611C268.289 36.3918 269.076 33.665 270.626 31.3687 272.136 29.3705 274.528 28.2378 277.031 28.336 279.081 28.2782 281.071 29.0362 282.564 30.4436 284.037 31.9024 284.822 33.9173 284.724 35.9879L284.724 36.0699 282.646 36.0699C282.745 34.5049 282.149 32.9757 281.018 31.8897 279.958 30.8498 278.521 30.2855 277.037 30.3265 275.086 30.2246 273.232 31.1853 272.19 32.8381 271.089 34.7264 270.548 36.8891 270.632 39.0732L270.632 39.9397C270.545 42.1461 271.078 44.3326 272.172 46.2509 273.226 47.9572 275.102 48.9808 277.107 48.944Z" fill="#A5A5A5" fill-rule="nonzero" fill-opacity="1" transform="matrix(1.00207 0 0 1 0 247)"/><path d="M301.866 50.5891C301.691 49.8046 301.609 49.2016 301.521 48.5927 301.448 48.0476 301.418 47.4975 301.433 46.9476 300.693 48.1699 299.648 49.1786 298.4 49.8749 297.061 50.6504 295.533 51.0395 293.986 50.9989 292.25 51.0808 290.556 50.4457 289.302 49.2426 288.154 47.999 287.561 46.3424 287.657 44.6526 287.599 42.7769 288.516 41.0048 290.081 39.969 291.726 38.7571 293.805 38.1482 296.398 38.1482L301.509 38.1482 301.509 35.5254C301.604 34.1684 301.096 32.8386 300.122 31.8897 299.01 30.9619 297.585 30.4966 296.14 30.59 294.768 30.5395 293.42 30.968 292.329 31.8019 291.397 32.5288 290.854 33.6467 290.86 34.8287L288.781 34.8287 288.781 34.7467C288.693 33.1016 289.367 31.7141 290.772 30.4144 294.005 27.9954 298.445 27.9954 301.679 30.4144 303.068 31.6282 303.761 33.3592 303.757 35.6073L303.757 46.2509C303.743 47.0033 303.772 47.7559 303.845 48.5049 303.947 49.2329 304.092 49.9542 304.278 50.6652L301.855 50.6652ZM294.331 48.8328C295.957 48.8674 297.556 48.4147 298.921 47.5331 300.15 46.7523 301.066 45.5651 301.509 44.1784L301.509 40.0275 296.398 40.0275C294.757 39.9527 293.14 40.4402 291.814 41.4092 290.699 42.177 290.022 43.434 289.993 44.7873 289.929 45.8793 290.339 46.9461 291.117 47.7145 291.983 48.5253 293.148 48.9389 294.331 48.8562Z" fill="#A5A5A5" fill-rule="nonzero" fill-opacity="1" transform="matrix(1.00207 0 0 1 0 247)"/><path d="M318.487 30.9354 316.842 30.8476C315.535 30.7969 314.26 31.2639 313.294 32.1473 312.317 33.0894 311.627 34.2891 311.304 35.6073L311.304 50.5891 309.05 50.5891 309.05 28.8571 311.04 28.8571 311.304 32.4927 311.304 32.7503C311.837 31.5249 312.671 30.4537 313.728 29.6357 314.747 28.8673 315.999 28.4707 317.275 28.5116 317.538 28.4969 317.801 28.5267 318.054 28.5995 318.312 28.6873 318.487 28.6873 318.639 28.7692Z" fill="#A5A5A5" fill-rule="nonzero" fill-opacity="1" transform="matrix(1.00207 0 0 1 0 247)"/><path d="M329.025 51.0165C326.521 51.1161 324.116 50.0318 322.533 48.0892 320.813 45.9341 319.922 43.2339 320.021 40.4783L320.021 39.3308C320.021 36.2162 320.888 33.6168 322.533 31.6263 324.033 29.7129 326.331 28.5965 328.762 28.5995 330.981 28.4904 333.125 29.4184 334.564 31.1111 335.951 32.8674 336.642 35.0921 336.642 37.9492L336.642 39.8519 322.293 39.8519 322.293 40.5427C322.205 42.7365 322.845 44.8978 324.113 46.69 325.239 48.2727 327.085 49.1836 329.025 49.1138 330.231 49.1271 331.427 48.892 332.538 48.4229 333.512 48.0144 334.395 47.4175 335.138 46.6666L336.051 48.3351C335.258 49.2001 334.285 49.8798 333.2 50.3257 331.863 50.8101 330.448 51.0443 329.025 51.0165ZM328.85 30.5256C327.182 30.5043 325.592 31.2355 324.523 32.5161 323.345 33.9377 322.648 35.6964 322.533 37.5393L322.621 37.6272 334.394 37.6272 334.394 37.1061C334.45 35.3989 333.93 33.7224 332.919 32.3464 331.919 31.1508 330.431 30.4726 328.873 30.5022Z" fill="#A5A5A5" fill-rule="nonzero" fill-opacity="1" transform="matrix(1.00207 0 0 1 0 247)"/><path d="M345.494 54.3946 343.849 56.1509C343.421 56.6359 342.682 56.6824 342.196 56.2546 342.16 56.2223 342.125 56.1877 342.093 56.1509L340.336 54.5058C339.852 54.0781 339.805 53.3382 340.233 52.8531 340.265 52.8164 340.3 52.7818 340.336 52.7495L341.982 50.9931C342.41 50.5081 343.149 50.4617 343.634 50.8894 343.671 50.9218 343.706 50.9564 343.738 50.9931L345.494 52.6382C345.979 53.066 346.026 53.8058 345.598 54.2909 345.566 54.3276 345.531 54.3622 345.494 54.3946Z" fill="#A5A5A5" fill-rule="evenodd" fill-opacity="1" transform="matrix(1.00207 0 0 1 0 247)"/><path d="M350.775 49.1782 349.739 51.3444C349.429 51.9405 348.711 52.196 348.094 51.9298L345.928 50.9345C345.329 50.6264 345.073 49.9064 345.342 49.2894L346.378 47.1232C346.685 46.5224 347.406 46.2654 348.023 46.5378L350.19 47.574C350.79 47.8802 351.047 48.6023 350.775 49.2192Z" fill="#A5A5A5" fill-rule="evenodd" fill-opacity="1" transform="matrix(1.00207 0 0 1 0 247)"/><path d="M351.729 56.0397 351.144 57.7961C350.967 58.2891 350.428 58.5496 349.932 58.3815L348.205 57.7961C347.717 57.6145 347.458 57.0798 347.619 56.5842L348.205 54.8278C348.382 54.3348 348.921 54.0743 349.417 54.2424L351.173 54.8278C351.654 54.9689 351.93 55.4731 351.788 55.954 351.78 55.983 351.77 56.0117 351.759 56.0397Z" fill="#A5A5A5" fill-rule="evenodd" fill-opacity="1" transform="matrix(1.00207 0 0 1 0 247)"/><path d="M353.896 42.6211 353.72 44.9629C353.661 45.6174 353.1 46.1114 352.444 46.087L350.102 45.9113C349.436 45.8553 348.937 45.2783 348.978 44.6116L349.148 42.2698C349.207 41.6058 349.782 41.1084 350.447 41.1457L352.789 41.3155C353.452 41.3773 353.95 41.9497 353.919 42.6152Z" fill="#A5A5A5" fill-rule="evenodd" fill-opacity="1" transform="matrix(1.00207 0 0 1 0 247)"/><path d="M354.499 35.2619 355.084 37.6037C355.265 38.2246 354.908 38.8745 354.287 39.0553 354.264 39.062 354.241 39.068 354.218 39.0732L351.876 39.6587C351.255 39.8401 350.605 39.4841 350.423 38.8634 350.417 38.8418 350.411 38.82 350.406 38.7981L349.821 36.4563C349.649 35.8328 350.015 35.1882 350.639 35.0166 350.655 35.0121 350.671 35.0081 350.687 35.0043L353.029 34.4189C353.65 34.2381 354.3 34.5949 354.48 35.2158 354.487 35.2388 354.493 35.262 354.499 35.2853Z" fill="#A5A5A5" fill-rule="evenodd" fill-opacity="1" transform="matrix(1.00207 0 0 1 0 247)"/><path d="M359.604 39.8519 360.189 41.6083C360.365 42.0982 360.111 42.638 359.621 42.8141 359.615 42.8162 359.61 42.8182 359.604 42.8201L357.847 43.4056C357.366 43.5857 356.829 43.3414 356.65 42.8599 356.644 42.8468 356.64 42.8335 356.635 42.8201L356.05 41.0638C355.872 40.5781 356.121 40.0399 356.607 39.8618 356.616 39.8583 356.626 39.8551 356.635 39.8519L358.363 39.2664C358.853 39.1652 359.349 39.4052 359.574 39.8519Z" fill="#A5A5A5" fill-rule="evenodd" fill-opacity="1" transform="matrix(1.00207 0 0 1 0 247)"/><path d="M357.127 48.6805 357.127 50.5891C357.111 51.1171 356.672 51.5331 356.144 51.52L354.241 51.52C353.718 51.5168 353.293 51.095 353.287 50.5716L353.287 48.6805C353.29 48.1558 353.716 47.7321 354.241 47.7321L356.144 47.7321C356.671 47.716 357.111 48.1299 357.127 48.6567 357.127 48.6646 357.127 48.6726 357.127 48.6805Z" fill="#A5A5A5" fill-rule="evenodd" fill-opacity="1" transform="matrix(1.00207 0 0 1 0 247)"/><path d="M363.848 45.9992 364.627 47.7555C364.857 48.233 364.665 48.8068 364.194 49.0494L362.437 49.828C361.96 50.0582 361.386 49.866 361.143 49.3948L360.365 47.6384C360.134 47.1609 360.323 46.5857 360.792 46.3387L362.549 45.5601C362.985 45.3067 363.544 45.4548 363.797 45.8909 363.816 45.9239 363.834 45.9581 363.848 45.9933Z" fill="#A5A5A5" fill-rule="evenodd" fill-opacity="1" transform="matrix(1.00207 0 0 1 0 247)"/><path d="M359.001 55.8641 359.171 57.7727C359.242 58.2687 358.898 58.7287 358.402 58.8001 358.371 58.8048 358.341 58.8077 358.31 58.8089L356.401 58.9845C355.901 59.0495 355.443 58.6971 355.378 58.1968 355.374 58.1706 355.372 58.1444 355.371 58.1181L355.195 56.2153C355.127 55.7123 355.479 55.2491 355.982 55.1806 356.008 55.177 356.035 55.1745 356.062 55.1732L357.964 55.0035C358.478 54.9906 358.922 55.3577 359.007 55.8641Z" fill="#A5A5A5" fill-rule="evenodd" fill-opacity="1" transform="matrix(1.00207 0 0 1 0 247)"/><path d="M352.684 28.254 354.065 30.2446C354.48 30.7944 354.371 31.5763 353.821 31.9911 353.816 31.9944 353.812 31.9977 353.808 32.0009L351.817 33.3709C351.263 33.7851 350.478 33.6714 350.064 33.1171 350.063 33.1158 350.062 33.1146 350.061 33.1133L348.673 31.1228C348.26 30.5719 348.372 29.7902 348.923 29.3769 348.927 29.3734 348.932 29.3699 348.937 29.3664L350.927 27.9789C351.46 27.5628 352.229 27.6573 352.645 28.1898 352.658 28.207 352.671 28.2245 352.684 28.2423Z" fill="#A5A5A5" fill-rule="evenodd" fill-opacity="1" transform="matrix(1.00207 0 0 1 0 247)"/><path d="M348.439 22.1946 350.43 23.5763C350.983 23.9831 351.133 24.7463 350.775 25.3326L349.393 27.3232C348.987 27.8769 348.223 28.027 347.637 27.6686L345.647 26.2869C345.093 25.88 344.943 25.1169 345.301 24.5305L346.683 22.54C346.997 21.9745 347.709 21.7705 348.275 22.0842 348.333 22.1163 348.388 22.1532 348.439 22.1946Z" fill="#A5A5A5" fill-rule="evenodd" fill-opacity="1" transform="matrix(1.00207 0 0 1 0 247)"/><path d="M355.277 22.4522 356.922 23.4182C357.366 23.6867 357.519 24.258 357.268 24.712L356.319 26.3455C356.047 26.7876 355.476 26.9393 355.02 26.6909L353.375 25.76C352.932 25.4873 352.781 24.9165 353.029 24.4603L353.978 22.8152C354.252 22.3755 354.821 22.2244 355.277 22.4697Z" fill="#A5A5A5" fill-rule="evenodd" fill-opacity="1" transform="matrix(1.00207 0 0 1 0 247)"/><path d="M359.089 30.8476 360.3 32.3229C360.623 32.74 360.585 33.3317 360.213 33.7046L358.743 34.9165C358.325 35.2424 357.729 35.2047 357.356 34.8287L356.144 33.3709C355.823 32.9511 355.86 32.3594 356.232 31.9834L357.713 30.7598C358.111 30.4003 358.726 30.432 359.085 30.8306 359.09 30.8362 359.096 30.8419 359.1 30.8476Z" fill="#A5A5A5" fill-rule="evenodd" fill-opacity="1" transform="matrix(1.00207 0 0 1 0 247)"/><path d="M362.461 24.4427 364.217 25.2214C364.681 25.4183 364.899 25.9543 364.701 26.4187 364.687 26.4539 364.67 26.4881 364.65 26.5211L363.872 28.2775C363.67 28.7434 363.129 28.9578 362.663 28.7563 362.632 28.7428 362.602 28.7276 362.572 28.7107L360.816 27.9262C360.354 27.7299 360.14 27.1969 360.336 26.7358 360.351 26.7002 360.369 26.6656 360.388 26.6323L361.167 24.876C361.379 24.4076 361.93 24.1998 362.399 24.4119 362.42 24.4214 362.44 24.4317 362.461 24.4427Z" fill="#A5A5A5" fill-rule="evenodd" fill-opacity="1" transform="matrix(1.00207 0 0 1 0 247)"/><path d="M365.148 35.18 366.448 36.4738C366.793 36.872 366.793 37.4631 366.448 37.8613L365.148 39.1611C364.75 39.5059 364.159 39.5059 363.76 39.1611L362.461 37.8613C362.116 37.4631 362.116 36.872 362.461 36.4738L363.76 35.18C364.078 34.7968 364.647 34.744 365.03 35.062 365.073 35.0976 365.112 35.1371 365.148 35.18Z" fill="#A5A5A5" fill-rule="evenodd" fill-opacity="1" transform="matrix(1.00207 0 0 1 0 247)"/><path d="M342.549 18.0379 344.891 18.6233C345.522 18.7648 345.919 19.391 345.778 20.022 345.772 20.0478 345.765 20.0734 345.758 20.0987L345.172 22.4405C345.042 23.074 344.424 23.4824 343.79 23.3527 343.747 23.3438 343.704 23.3324 343.662 23.3187L341.32 22.7332C340.689 22.5908 340.293 21.9641 340.435 21.3333 340.441 21.3099 340.447 21.2867 340.454 21.2637L341.039 18.9219C341.14 18.3158 341.712 17.9059 342.318 18.0063 342.383 18.017 342.446 18.0335 342.508 18.0554Z" fill="#A5A5A5" fill-rule="evenodd" fill-opacity="1" transform="matrix(1.00207 0 0 1 0 247)"/><path d="M335.366 16.0473 337.708 15.8717C338.331 15.7972 338.896 16.2417 338.971 16.8645 338.975 16.9023 338.978 16.9402 338.978 16.9782L339.154 19.32C339.241 19.9412 338.808 20.5155 338.187 20.6028 338.135 20.6101 338.082 20.6138 338.03 20.6139L335.688 20.7895C335.067 20.8768 334.492 20.444 334.405 19.8228 334.398 19.7707 334.394 19.7181 334.394 19.6654L334.218 17.3236C334.178 16.6569 334.677 16.0799 335.342 16.0239Z" fill="#A5A5A5" fill-rule="evenodd" fill-opacity="1" transform="matrix(1.00207 0 0 1 0 247)"/><path d="M340.822 11.8028 342.637 11.4573C343.164 11.3646 343.666 11.7113 343.767 12.236L344.113 14.0568C344.195 14.5794 343.852 15.0746 343.334 15.1808L341.513 15.5263C340.989 15.6188 340.487 15.2715 340.389 14.7476L340.044 12.9268C339.979 12.4084 340.314 11.9241 340.822 11.8028Z" fill="#A5A5A5" fill-rule="evenodd" fill-opacity="1" transform="matrix(1.00207 0 0 1 0 247)"/><path d="M349.042 15.8717 350.863 16.2171C351.387 16.3177 351.734 16.8209 351.642 17.347L351.296 19.1619C351.195 19.6839 350.696 20.0298 350.172 19.9406L348.345 19.5952C347.823 19.4945 347.478 18.9951 347.567 18.4711L347.912 16.6503C348.016 16.1301 348.513 15.7857 349.036 15.8717Z" fill="#A5A5A5" fill-rule="evenodd" fill-opacity="1" transform="matrix(1.00207 0 0 1 0 247)"/><path d="M347.573 8.78182 349.393 8.26076C349.919 8.11867 350.46 8.42727 350.605 8.9516L351.12 10.7724C351.266 11.2959 350.959 11.8378 350.435 11.9827 350.433 11.9833 350.431 11.9838 350.43 11.9843L348.615 12.4995C348.095 12.6467 347.554 12.345 347.408 11.8254 347.406 11.8199 347.405 11.8142 347.403 11.8086L346.882 9.99371C346.706 9.52441 346.944 9.00136 347.413 8.82549 347.465 8.80611 347.518 8.79148 347.573 8.78182Z" fill="#A5A5A5" fill-rule="evenodd" fill-opacity="1" transform="matrix(1.00207 0 0 1 0 247)"/><path d="M356.489 15.2687 358.392 15.4384C358.918 15.4879 359.306 15.9538 359.258 16.4805L359.089 18.3833C359.039 18.9098 358.573 19.2972 358.046 19.2497L356.144 19.0741C355.619 19.0277 355.231 18.5645 355.277 18.0396 355.277 18.039 355.277 18.0384 355.277 18.0379L355.453 16.1351C355.506 15.6127 355.966 15.2278 356.489 15.2687Z" fill="#A5A5A5" fill-rule="evenodd" fill-opacity="1" transform="matrix(1.00207 0 0 1 0 247)"/><path d="M328.182 16.6503 330.349 15.6141C330.966 15.3448 331.686 15.6011 331.994 16.1995L333.03 18.3657C333.299 18.9827 333.043 19.7027 332.445 20.0108L330.261 21.0764C329.644 21.3487 328.922 21.0917 328.616 20.4909L327.574 18.3247C327.264 17.7571 327.473 17.0458 328.04 16.736 328.079 16.715 328.119 16.6962 328.159 16.6796Z" fill="#A5A5A5" fill-rule="evenodd" fill-opacity="1" transform="matrix(1.00207 0 0 1 0 247)"/><path d="M321.415 19.7708 323.06 18.0144C323.496 17.5375 324.237 17.5049 324.714 17.9417 324.739 17.9648 324.763 17.9891 324.787 18.0144L326.543 19.6596C327.028 20.0873 327.075 20.8273 326.647 21.3122 326.615 21.3489 326.58 21.3836 326.543 21.4159L324.898 23.1723C324.47 23.6573 323.731 23.7037 323.245 23.276 323.208 23.2436 323.174 23.209 323.142 23.1723L321.385 21.5272C320.908 21.0904 320.876 20.3498 321.313 19.8728 321.335 19.8476 321.36 19.8233 321.385 19.8001Z" fill="#A5A5A5" fill-rule="evenodd" fill-opacity="1" transform="matrix(1.00207 0 0 1 0 247)"/><path d="M322.902 13.1025 324.113 11.633C324.464 11.2261 325.077 11.1801 325.484 11.5302 325.49 11.5352 325.495 11.5401 325.501 11.5452L326.97 12.7571C327.376 13.0995 327.426 13.7054 327.083 14.1102 327.075 14.1199 327.067 14.1294 327.058 14.1387L325.846 15.6141C325.496 16.0209 324.883 16.0669 324.476 15.7168 324.47 15.7119 324.465 15.7069 324.459 15.7019L322.989 14.49C322.583 14.1353 322.54 13.5177 322.895 13.1106 322.897 13.1079 322.899 13.1052 322.902 13.1025Z" fill="#A5A5A5" fill-rule="evenodd" fill-opacity="1" transform="matrix(1.00207 0 0 1 0 247)"/><path d="M331.818 10.8543 333.463 9.90004C333.92 9.65473 334.488 9.80584 334.763 10.2455L335.711 11.8906C335.96 12.3468 335.808 12.9176 335.366 13.1903L333.709 14.1387C333.253 14.3871 332.682 14.2354 332.409 13.7933L331.461 12.1482C331.188 11.7353 331.302 11.1797 331.715 10.9071 331.744 10.8878 331.775 10.8701 331.806 10.8543Z" fill="#A5A5A5" fill-rule="evenodd" fill-opacity="1" transform="matrix(1.00207 0 0 1 0 247)"/><path d="M326.016 6.35218 327.058 4.78902C327.393 4.37542 327.979 4.26624 328.44 4.53142L329.997 5.57353C330.415 5.9053 330.527 6.49292 330.261 6.9552L329.219 8.51251C328.891 8.92297 328.314 9.03678 327.855 8.78182L326.297 7.73971C325.879 7.40793 325.767 6.82031 326.034 6.35804Z" fill="#A5A5A5" fill-rule="evenodd" fill-opacity="1" transform="matrix(1.00207 0 0 1 0 247)"/><path d="M337.099 5.65549 338.656 4.53142C339.111 4.22128 339.73 4.33634 340.044 4.78902L341.168 6.35218C341.477 6.80503 341.362 7.42298 340.91 7.73385L339.347 8.85793C338.902 9.1698 338.289 9.06207 337.977 8.61736 337.973 8.61168 337.969 8.60606 337.965 8.60033L336.841 7.02545C336.553 6.56634 336.665 5.96309 337.099 5.63793Z" fill="#A5A5A5" fill-rule="evenodd" fill-opacity="1" transform="matrix(1.00207 0 0 1 0 247)"/><path d="M315.285 18.0379 315.87 16.2815C316.049 15.7907 316.586 15.5313 317.082 15.696L318.839 16.2815C319.327 16.4631 319.586 16.9978 319.424 17.4934L318.839 19.2497C318.659 19.7405 318.123 19.9999 317.627 19.8352L315.87 19.2497C315.391 19.113 315.114 18.6141 315.251 18.1353 315.26 18.1021 315.272 18.0696 315.285 18.0379Z" fill="#A5A5A5" fill-rule="evenodd" fill-opacity="1" transform="matrix(1.00207 0 0 1 0 247)"/><path d="M308.013 18.2955 307.838 16.3927C307.766 15.8935 308.113 15.4306 308.612 15.3591 308.643 15.3547 308.673 15.3519 308.704 15.3506L310.607 15.1808C311.106 15.1093 311.569 15.456 311.641 15.9553 311.645 15.9858 311.648 16.0165 311.649 16.0473L311.819 17.95C311.89 18.4461 311.546 18.9061 311.05 18.9776 311.017 18.9823 310.985 18.9851 310.952 18.9863L309.05 19.1619C308.561 19.2396 308.102 18.9066 308.025 18.418 308.018 18.3774 308.014 18.3365 308.013 18.2955Z" fill="#A5A5A5" fill-rule="evenodd" fill-opacity="1" transform="matrix(1.00207 0 0 1 0 247)"/><path d="M315.976 10.6787 316.497 8.85793C316.655 8.34542 317.192 8.05199 317.709 8.19636L319.524 8.71742C320.047 8.84727 320.369 9.375 320.244 9.90004L319.723 11.7149C319.583 12.2433 319.042 12.5584 318.513 12.4189 318.505 12.4166 318.496 12.4142 318.487 12.4116L316.667 11.8906C316.167 11.7144 315.873 11.1982 315.976 10.6787Z" fill="#A5A5A5" fill-rule="evenodd" fill-opacity="1" transform="matrix(1.00207 0 0 1 0 247)"/><g clip-path="url(#clip4)"><path d="M3.08535 77.28 28.6112 77.28 28.6112 134.128 70.1667 134.128 70.1667 77.28 95.8448 77.28 95.8448 217.092 70.1667 217.092 70.1667 155.35 28.6112 155.35 28.6112 217.092 3.08535 217.092 3.08535 77.28Z" fill="#A5A5A5" fill-rule="nonzero" fill-opacity="1" transform="matrix(1.00207 0 0 1 0 247)"/></g><g clip-path="url(#clip5)"><g clip-path="url(#clip6)"><path d="M161.439 156.539C161.439 138.279 155.356 129.081 144.227 129.081 131.165 129.081 125.82 142.88 125.82 156.539ZM180.32 212.046C170.608 216.402 160.093 218.675 149.449 218.72 116.207 218.72 101.811 194.828 101.811 167.071 101.811 136.206 117.987 112.46 144.256 112.46 166.503 112.46 185.513 125.516 185.513 167.493L185.513 172.241 125.82 172.241C125.82 189.898 132.799 200.436 152.089 200.436 167.381 200.436 174.501 195.835 179.102 192.421Z" fill="#A5A5A5" fill-rule="nonzero" fill-opacity="1" transform="matrix(1.00207 0 0 1 0 247)"/></g><g clip-path="url(#clip7)"><path d="M248.561 166.626 246.336 166.626C225.113 166.626 212.497 171.082 212.497 186.069 212.497 195.436 218.732 201.953 228.374 201.953 243.221 201.953 248.561 190.969 248.561 172.563L248.561 166.626ZM199.734 119.878C206.706 116.611 216.501 112.308 232.384 112.308 264.444 112.308 271.862 127.893 271.862 153.717L271.862 198.832C271.88 204.942 272.326 211.044 273.197 217.092L250.785 217.092C249.614 213.082 249.45 208.035 249.45 203.141L249.006 203.141C242.77 211.601 235.054 218.72 220.213 218.72 204.183 218.72 189.342 207.737 189.342 188.446 189.342 160.397 212.175 153.418 243.666 153.418L248.707 153.418 248.707 149.56C248.707 139.321 243.666 129.971 229.416 129.971 216.946 129.971 205.969 135.907 201.215 139.924Z" fill="#A5A5A5" fill-rule="nonzero" fill-opacity="1" transform="matrix(1.00207 0 0 1 0 247)"/></g><g clip-path="url(#clip8)"><path d="M281.065 66.894 305.847 66.894 305.847 217.092 281.065 217.092Z" fill="#A5A5A5" fill-rule="nonzero" fill-opacity="1" transform="matrix(1.00207 0 0 1 0 247)"/></g><g clip-path="url(#clip9)"><path d="M329.892 92.7184 354.68 85.1485 354.68 113.941 375.306 113.941 375.306 132.196 354.68 132.196 354.68 185.624C354.68 196.607 358.685 199.874 365.956 199.874 370.411 199.874 373.526 198.703 375.323 197.649L375.323 215.307C371.465 217.092 366.126 218.72 358.702 218.72 340.301 218.72 329.909 210.26 329.909 188.745L329.909 132.196 313.417 132.196 313.417 113.941 329.892 113.941Z" fill="#A5A5A5" fill-rule="nonzero" fill-opacity="1" transform="matrix(1.00207 0 0 1 0 247)"/></g><g clip-path="url(#clip10)"><path d="M383.174 66.894 407.956 66.894 407.956 127.149 408.542 127.149C412.991 120.768 418.781 112.308 434.214 112.308 457.667 112.308 464.658 129.672 464.658 150.602L464.658 217.092 439.87 217.092 439.87 155.198C439.87 139.321 435.859 132.793 425.62 132.793 412.558 132.793 407.956 143.77 407.956 156.984L407.956 217.092 383.174 217.092 383.174 66.894Z" fill="#A5A5A5" fill-rule="nonzero" fill-opacity="1" transform="matrix(1.00207 0 0 1 0 247)"/></g><g clip-path="url(#clip11)"><path d="M483.205 77.28 508.883 77.28 508.883 217.087 483.205 217.087Z" fill="#A5A5A5" fill-rule="nonzero" fill-opacity="1" transform="matrix(1.00207 0 0 1 0 247)"/></g><g clip-path="url(#clip12)"><path d="M517.044 130.714C517.044 123.291 516.599 117.653 516.301 113.941L541.089 113.941C541.235 119.286 541.826 124.778 541.826 130.117L542.277 130.117C546.135 122.102 554.15 112.308 568.248 112.308 585.613 112.308 591.251 123.145 594.219 128.782 599.265 121.511 606.689 112.308 621.823 112.308 644.234 112.308 651.505 128.337 651.505 153.418L651.505 217.092 626.723 217.092 626.723 151.937C626.723 139.174 622.713 132.617 613.515 132.617 602.532 132.617 596.742 143.009 596.742 154.437L596.742 216.94 571.989 216.94 571.989 151.785C571.989 139.022 567.979 132.494 558.775 132.494 547.798 132.494 542.008 142.88 542.008 154.308L542.008 216.794 517.191 216.794 517.191 130.732Z" fill="#A5A5A5" fill-rule="nonzero" fill-opacity="1" transform="matrix(1.00207 0 0 1 0 247)"/></g><g clip-path="url(#clip13)"><path d="M717.258 166.626 715.027 166.626C693.805 166.626 681.188 171.082 681.188 186.069 681.188 195.436 687.423 201.953 697.071 201.953 711.913 201.953 717.258 190.969 717.258 172.563ZM668.425 119.878C675.404 116.611 685.198 112.308 701.076 112.308 733.135 112.308 740.559 127.893 740.559 153.717L740.559 198.832C740.577 204.942 741.021 211.045 741.894 217.092L719.483 217.092C718.312 213.082 718.148 208.035 718.148 203.141L717.703 203.141C711.468 211.601 703.752 218.72 688.91 218.72 672.88 218.72 658.039 207.737 658.039 188.446 658.039 160.397 680.872 153.418 712.358 153.418L717.404 153.418 717.404 149.56C717.404 139.321 712.358 129.971 698.084 129.971 685.62 129.971 674.637 135.907 669.889 139.924Z" fill="#A5A5A5" fill-rule="nonzero" fill-opacity="1" transform="matrix(1.00207 0 0 1 0 247)"/></g><g clip-path="url(#clip14)"><path d="M788.197 198.832C803.782 198.832 810.017 187.556 810.017 164.103 810.017 142.441 801.821 130.861 789.977 131.007 776.916 131.159 772.021 143.179 772.021 164.255 771.875 188.592 779.738 198.832 788.197 198.832M752.309 233.116C758.099 236.383 769.674 241.898 782.753 241.898 806.171 241.898 810.064 225.722 810.064 209.394L810.064 199.576 809.619 199.576C805.609 207.59 798.636 216.94 782.308 216.94 767.911 216.94 746.244 207.292 746.244 165.59 746.244 137.096 756.483 112.161 783.496 112.161 798.484 112.161 805.463 120.768 810.802 129.825L811.545 129.825C811.545 124.479 812.131 119.134 812.289 113.795L834.7 113.795C834.255 119.134 833.957 124.626 833.957 129.971L833.957 206.109C833.957 238.309 824.162 261.464 786.318 261.464 774.211 261.422 762.209 259.262 750.845 255.083Z" fill="#A5A5A5" fill-rule="nonzero" fill-opacity="1" transform="matrix(1.00207 0 0 1 0 247)"/></g><g clip-path="url(#clip15)"><path d="M842.814 113.941 867.603 113.941 867.603 217.092 842.814 217.092ZM842.37 70.0321 868.048 70.0321 868.048 94.5216 842.37 94.5216Z" fill="#A5A5A5" fill-rule="nonzero" fill-opacity="1" transform="matrix(1.00207 0 0 1 0 247)"/></g><g clip-path="url(#clip16)"><path d="M878.287 131.007C878.287 124.626 878.135 118.543 877.544 113.941L900.845 113.941C900.991 119.134 901.588 124.626 901.588 129.825L902.033 129.825C905.593 123.589 912.718 112.46 929.491 112.46 952.909 112.46 959.935 129.825 959.935 150.749L959.935 217.239 935.147 217.239 935.147 155.35C935.147 139.467 931.142 132.939 920.897 132.939 907.841 132.939 903.239 143.922 903.239 157.13L903.239 217.239 878.451 217.239 878.451 131.007Z" fill="#A5A5A5" fill-rule="nonzero" fill-opacity="1" transform="matrix(1.00207 0 0 1 0 247)"/></g><g clip-path="url(#clip17)"><path d="M1007.11 198.832C1022.7 198.832 1028.92 187.556 1028.92 164.103 1028.92 142.441 1020.76 130.861 1008.89 131.007 995.829 131.159 990.934 143.179 990.934 164.255 990.782 188.592 998.651 198.832 1007.11 198.832M971.193 233.116C976.983 236.383 988.558 241.898 1001.64 241.898 1025.08 241.898 1028.94 225.722 1028.94 209.394L1028.94 199.576 1028.5 199.576C1024.49 207.59 1017.51 216.94 1001.19 216.94 986.795 216.94 965.128 207.292 965.128 165.59 965.128 137.096 975.367 112.161 1002.38 112.161 1017.37 112.161 1024.35 120.768 1029.69 129.825L1030.4 129.825C1030.4 124.479 1030.99 119.134 1031.14 113.795L1053.55 113.795C1053.11 119.134 1052.81 124.626 1052.81 129.971L1052.81 206.109C1052.81 238.309 1043.02 261.464 1005.17 261.464 993.065 261.422 981.058 259.263 969.7 255.083Z" fill="#A5A5A5" fill-rule="nonzero" fill-opacity="1" transform="matrix(1.00207 0 0 1 0 247)"/></g></g><path d="M104.755 281.984 104.755 316.983 99.9312 316.983 99.9312 281.984Z" fill="#A5A5A5" fill-rule="nonzero" fill-opacity="1" transform="matrix(1.00207 0 0 1 0 247)"/><path d="M139.449 316.983 133.009 316.983 118.789 287.265C118.992 289.607 119.152 291.765 119.269 293.74 119.386 295.715 119.44 298.109 119.433 300.924L119.433 316.977 114.913 316.977 114.913 281.984 121.189 281.984 135.568 311.749C135.468 310.87 135.328 309.325 135.158 307.124 134.988 304.922 134.906 302.908 134.906 301.082L134.906 281.984 139.426 281.984Z" fill="#A5A5A5" fill-rule="nonzero" fill-opacity="1" transform="matrix(1.00207 0 0 1 0 247)"/><path d="M164.238 282.365C166.017 283.094 167.653 284.135 169.068 285.438L166.427 288.366C165.254 287.405 163.944 286.625 162.54 286.053 161.232 285.554 159.841 285.304 158.442 285.315 156.839 285.252 155.257 285.697 153.922 286.586 152.744 287.442 152.082 288.838 152.165 290.292 152.136 291.188 152.348 292.076 152.78 292.862 153.343 293.693 154.126 294.351 155.04 294.765 156.583 295.513 158.19 296.125 159.841 296.591 161.734 297.146 163.57 297.877 165.327 298.775 166.749 299.539 167.957 300.648 168.839 302.001 169.788 303.569 170.256 305.38 170.186 307.211 170.221 309.112 169.7 310.982 168.687 312.592 167.629 314.202 166.129 315.473 164.366 316.251 162.265 317.179 159.983 317.631 157.686 317.574 152.846 317.574 148.885 316.068 145.802 313.054L148.442 310.127C149.745 311.208 151.201 312.09 152.763 312.744 154.313 313.354 155.967 313.657 157.634 313.634 159.556 313.709 161.45 313.147 163.02 312.036 164.466 310.932 165.268 309.18 165.157 307.364 165.193 306.366 164.965 305.376 164.495 304.495 163.938 303.62 163.158 302.909 162.235 302.434 160.756 301.66 159.197 301.047 157.587 300.607 154 299.523 151.375 298.219 149.712 296.697 148.05 295.169 147.224 293.108 147.224 290.497 147.199 288.817 147.685 287.169 148.618 285.772 149.594 284.347 150.948 283.222 152.528 282.523 154.326 281.719 156.279 281.319 158.248 281.352 160.291 281.308 162.323 281.652 164.238 282.365Z" fill="#A5A5A5" fill-rule="nonzero" fill-opacity="1" transform="matrix(1.00207 0 0 1 0 247)"/><path d="M182.123 281.984 182.123 316.983 177.293 316.983 177.293 281.984Z" fill="#A5A5A5" fill-rule="nonzero" fill-opacity="1" transform="matrix(1.00207 0 0 1 0 247)"/><path d="M210.898 282.312C212.646 283.023 214.267 284.011 215.699 285.239L212.854 288.167C211.772 287.256 210.556 286.519 209.247 285.983 207.945 285.517 206.568 285.293 205.184 285.321 203.428 285.311 201.707 285.814 200.231 286.767 198.577 287.914 197.296 289.523 196.549 291.392 195.6 293.512 195.126 296.195 195.126 299.442 195.126 304.356 195.93 307.947 197.538 310.215 199.146 312.482 201.525 313.616 204.675 313.616 206.998 313.681 209.298 313.141 211.349 312.047L211.349 301.509 205.132 301.509 204.575 297.598 216.103 297.598 216.103 314.518C212.633 316.539 208.691 317.607 204.675 317.615 200.066 317.615 196.467 316.073 193.879 312.99 191.291 309.906 189.996 305.402 189.992 299.478 189.904 296.102 190.61 292.753 192.053 289.7 193.267 287.147 195.19 284.995 197.591 283.5 199.882 282.104 202.518 281.374 205.202 281.393 207.141 281.345 209.072 281.657 210.898 282.312Z" fill="#A5A5A5" fill-rule="nonzero" fill-opacity="1" transform="matrix(1.00207 0 0 1 0 247)"/><path d="M243.889 316.983 243.889 300.59 229.159 300.59 229.159 316.983 224.334 316.983 224.334 281.984 229.159 281.984 229.159 296.621 243.889 296.621 243.889 281.984 248.719 281.984 248.719 316.983Z" fill="#A5A5A5" fill-rule="nonzero" fill-opacity="1" transform="matrix(1.00207 0 0 1 0 247)"/><path d="M279.549 281.984 279.039 286.082 269.338 286.082 269.338 316.971 264.514 316.971 264.514 286.094 254.561 286.094 254.561 281.996Z" fill="#A5A5A5" fill-rule="nonzero" fill-opacity="1" transform="matrix(1.00207 0 0 1 0 247)"/><path d="M298.752 282.365C300.529 283.096 302.162 284.136 303.576 285.438L300.935 288.366C299.763 287.405 298.452 286.625 297.048 286.053 295.74 285.554 294.35 285.304 292.95 285.315 291.347 285.252 289.765 285.697 288.43 286.586 287.25 287.441 286.588 288.837 286.674 290.292 286.638 291.185 286.84 292.072 287.259 292.862 287.822 293.693 288.604 294.351 289.519 294.765 291.062 295.513 292.669 296.125 294.32 296.591 296.212 297.146 298.049 297.877 299.805 298.775 301.23 299.536 302.439 300.646 303.318 302.001 304.267 303.569 304.735 305.38 304.665 307.211 304.703 309.113 304.182 310.983 303.166 312.592 302.112 314.203 300.613 315.474 298.851 316.251 296.749 317.179 294.468 317.631 292.171 317.574 287.324 317.574 283.36 316.068 280.28 313.054L282.927 310.127C284.226 311.209 285.681 312.091 287.242 312.744 288.802 313.355 290.466 313.655 292.142 313.628 294.064 313.702 295.957 313.141 297.528 312.03 298.966 310.93 299.765 309.188 299.659 307.381 299.695 306.384 299.467 305.394 298.997 304.512 298.44 303.637 297.66 302.926 296.738 302.452 295.258 301.677 293.7 301.065 292.089 300.625 288.502 299.54 285.877 298.236 284.215 296.714 282.558 295.186 281.727 293.125 281.727 290.514 281.703 288.834 282.191 287.187 283.126 285.79 284.102 284.365 285.457 283.239 287.037 282.54 288.832 281.735 290.783 281.336 292.751 281.369 294.796 281.32 296.832 281.657 298.752 282.365Z" fill="#A5A5A5" fill-rule="nonzero" fill-opacity="1" transform="matrix(1.00207 0 0 1 0 247)"/><path d="M330.091 281.984 330.091 316.983 325.267 316.983 325.267 281.984Z" fill="#A5A5A5" fill-rule="nonzero" fill-opacity="1" transform="matrix(1.00207 0 0 1 0 247)"/><path d="M364.785 316.983 358.345 316.983 344.118 287.265C344.323 289.607 344.481 291.761 344.604 293.74 344.727 295.719 344.78 298.119 344.78 300.929L344.78 316.983 340.26 316.983 340.26 281.984 346.56 281.984 360.933 311.749C360.833 310.87 360.693 309.325 360.529 307.124 360.365 304.922 360.271 302.908 360.271 301.082L360.271 281.984 364.791 281.984Z" fill="#A5A5A5" fill-rule="nonzero" fill-opacity="1" transform="matrix(1.00207 0 0 1 0 247)"/><path d="M393.232 281.984 393.232 316.983 388.408 316.983 388.408 281.984Z" fill="#A5A5A5" fill-rule="nonzero" fill-opacity="1" transform="matrix(1.00207 0 0 1 0 247)"/><path d="M434.682 316.983 429.999 316.983 428.781 301.175C428.273 294.981 427.985 290.223 427.915 286.902L420.356 313.019 415.831 313.019 407.863 286.873C407.863 291.111 407.642 296.006 407.201 301.556L406.03 317 401.458 317 404.35 282.002 410.854 282.002 418.219 307.446 425.245 282.002 431.802 282.002Z" fill="#A5A5A5" fill-rule="nonzero" fill-opacity="1" transform="matrix(1.00207 0 0 1 0 247)"/><path d="M461.555 316.983 458.914 308.201 445.654 308.201 443.013 316.983 438.137 316.983 449.366 281.984 455.484 281.984 466.66 316.983ZM446.825 304.284 457.749 304.284 452.31 285.995Z" fill="#A5A5A5" fill-rule="nonzero" fill-opacity="1" transform="matrix(1.00207 0 0 1 0 247)"/><path d="M490.131 282.312C491.878 283.023 493.5 284.011 494.932 285.239L492.086 288.167C491.005 287.256 489.788 286.519 488.48 285.983 487.177 285.517 485.8 285.293 484.417 285.321 482.66 285.311 480.939 285.814 479.464 286.767 477.809 287.914 476.528 289.523 475.781 291.392 474.833 293.512 474.359 296.195 474.359 299.442 474.359 304.356 475.162 307.947 476.771 310.215 478.379 312.482 480.758 313.616 483.907 313.616 486.225 313.679 488.518 313.138 490.564 312.047L490.564 301.509 484.364 301.509 483.779 297.598 495.306 297.598 495.306 314.518C491.836 316.539 487.894 317.607 483.878 317.615 479.269 317.615 475.67 316.073 473.082 312.99 470.495 309.906 469.199 305.402 469.195 299.478 469.107 296.102 469.813 292.753 471.256 289.7 472.471 287.147 474.393 284.995 476.794 283.5 479.086 282.104 481.721 281.374 484.405 281.393 486.354 281.341 488.296 281.653 490.131 282.312Z" fill="#A5A5A5" fill-rule="nonzero" fill-opacity="1" transform="matrix(1.00207 0 0 1 0 247)"/><path d="M508.391 281.984 508.391 316.983 503.567 316.983 503.567 281.984Z" fill="#A5A5A5" fill-rule="nonzero" fill-opacity="1" transform="matrix(1.00207 0 0 1 0 247)"/><path d="M543.085 316.983 536.645 316.983 522.424 287.265C522.628 289.607 522.787 291.765 522.905 293.74 523.022 295.715 523.082 298.112 523.086 300.929L523.086 316.983 518.56 316.983 518.56 281.984 524.86 281.984 539.204 311.749C539.098 310.87 538.964 309.325 538.794 307.124 538.624 304.922 538.542 302.908 538.542 301.082L538.542 281.984 543.062 281.984Z" fill="#A5A5A5" fill-rule="nonzero" fill-opacity="1" transform="matrix(1.00207 0 0 1 0 247)"/><path d="M571.86 282.312C573.608 283.023 575.229 284.011 576.661 285.239L573.816 288.167C572.741 287.261 571.532 286.528 570.233 285.995 568.93 285.529 567.553 285.304 566.17 285.333 564.413 285.325 562.693 285.827 561.217 286.779 559.563 287.928 558.283 289.535 557.534 291.404 556.586 293.523 556.112 296.207 556.112 299.454 556.112 304.368 556.915 307.959 558.524 310.227 560.132 312.494 562.512 313.628 565.666 313.628 567.975 313.683 570.258 313.139 572.294 312.047L572.294 301.509 566.099 301.509 565.514 297.598 577.047 297.598 577.047 314.518C573.577 316.539 569.635 317.607 565.619 317.615 561.014 317.615 557.415 316.073 554.824 312.99 552.232 309.906 550.936 305.402 550.936 299.478 550.847 296.102 551.55 292.754 552.991 289.7 554.209 287.149 556.131 284.998 558.529 283.5 560.822 282.105 563.457 281.375 566.14 281.393 568.088 281.342 570.027 281.653 571.86 282.312Z" fill="#A5A5A5" fill-rule="nonzero" fill-opacity="1" transform="matrix(1.00207 0 0 1 0 247)"/><path d="M613.872 282.365C615.201 282.961 616.337 283.918 617.151 285.128 617.93 286.303 618.334 287.684 618.322 289.092 618.363 290.989 617.684 292.831 616.419 294.249 614.885 295.893 613.111 297.289 611.15 298.389L620.09 306.819C621.442 304.089 622.461 301.208 623.134 298.236L627.508 299.507C626.501 303.046 624.973 306.418 622.982 309.512L628.673 314.846 625.318 317.591 620.394 312.814C619.024 314.345 617.344 315.566 615.465 316.397 613.469 317.218 611.326 317.617 609.165 317.568 607.134 317.607 605.114 317.208 603.252 316.397 601.625 315.691 600.231 314.538 599.236 313.072 598.258 311.588 597.755 309.842 597.79 308.066 597.749 306.086 598.364 304.148 599.546 302.557 601.022 300.727 602.802 299.171 604.815 297.961 603.399 296.66 602.146 295.191 601.08 293.588 600.284 292.272 599.88 290.758 599.909 289.22 599.845 287.071 600.729 285.002 602.322 283.559 603.932 282.084 606.162 281.346 609.001 281.346 610.682 281.318 612.344 281.666 613.872 282.365ZM603.791 303.95C602.977 305.119 602.55 306.513 602.567 307.937 602.485 309.621 603.211 311.242 604.523 312.305 606.004 313.414 607.831 313.97 609.681 313.88 611.174 313.902 612.649 313.589 614.001 312.966 615.389 312.28 616.642 311.352 617.707 310.227L607.55 300.52C606.092 301.417 604.815 302.58 603.791 303.95ZM605.717 286.047C604.897 286.886 604.458 288.024 604.499 289.197 604.482 290.36 604.821 291.501 605.465 292.47 606.355 293.719 607.38 294.869 608.516 295.9 609.973 295.068 611.297 294.014 612.426 292.774 613.269 291.833 613.738 290.614 613.744 289.349 613.814 288.108 613.351 286.896 612.473 286.018 611.537 285.197 610.313 284.777 609.072 284.847 607.836 284.773 606.625 285.207 605.717 286.047Z" fill="#A5A5A5" fill-rule="nonzero" fill-opacity="1" transform="matrix(1.00207 0 0 1 0 247)"/><path d="M654.076 281.984 654.076 316.983 649.269 316.983 649.269 281.984Z" fill="#A5A5A5" fill-rule="nonzero" fill-opacity="1" transform="matrix(1.00207 0 0 1 0 247)"/><path d="M688.77 316.983 682.33 316.983 668.103 287.265C668.308 289.607 668.466 291.765 668.583 293.74 668.7 295.715 668.759 298.112 668.765 300.929L668.765 316.983 664.245 316.983 664.245 281.984 670.544 281.984 684.917 311.749C684.818 310.87 684.677 309.325 684.513 307.124 684.35 304.922 684.256 302.908 684.256 301.082L684.256 281.984 688.776 281.984Z" fill="#A5A5A5" fill-rule="nonzero" fill-opacity="1" transform="matrix(1.00207 0 0 1 0 247)"/><path d="M698.933 316.983 698.933 281.984 717.521 281.984 716.965 285.842 703.757 285.842 703.757 297.78 715.185 297.78 715.185 301.591 703.757 301.591 703.757 316.983Z" fill="#A5A5A5" fill-rule="nonzero" fill-opacity="1" transform="matrix(1.00207 0 0 1 0 247)"/><path d="M743.252 283.477C745.553 284.979 747.356 287.129 748.433 289.654 749.751 292.768 750.383 296.128 750.289 299.507 750.377 302.853 749.745 306.18 748.433 309.26 746.279 314.457 741.127 317.775 735.507 317.591 732.778 317.651 730.091 316.927 727.761 315.507 725.46 314.022 723.651 311.881 722.58 309.36 720.103 303.077 720.103 296.089 722.58 289.806 723.657 287.247 725.472 285.064 727.784 283.53 730.091 282.069 732.778 281.318 735.507 281.369 738.235 281.313 740.928 282.045 743.252 283.477ZM728.393 288.787C726.701 291.094 725.852 294.684 725.852 299.56 725.852 304.435 726.707 307.99 728.417 310.227 730.068 312.466 732.726 313.74 735.507 313.628 741.941 313.628 745.155 308.921 745.155 299.507 745.155 290.093 741.941 285.368 735.507 285.333 732.702 285.213 730.032 286.511 728.393 288.787Z" fill="#A5A5A5" fill-rule="nonzero" fill-opacity="1" transform="matrix(1.00207 0 0 1 0 247)"/><path d="M768.421 302.147 762.988 302.147 762.988 316.983 758.164 316.983 758.164 281.984 767.361 281.984C771.729 281.984 775.048 282.814 777.314 284.472 779.58 286.131 780.709 288.602 780.692 291.884 780.791 294.027 780.124 296.134 778.813 297.832 777.56 299.355 775.663 300.506 773.122 301.287L782.571 316.983 776.834 316.983ZM767.835 298.441C770.37 298.441 772.285 297.924 773.573 296.89 774.861 295.855 775.505 294.187 775.505 291.884 775.505 289.718 774.849 288.155 773.549 287.201 772.25 286.246 770.154 285.754 767.273 285.754L762.958 285.754 762.958 298.453Z" fill="#A5A5A5" fill-rule="nonzero" fill-opacity="1" transform="matrix(1.00207 0 0 1 0 247)"/><path d="M820.187 316.983 815.503 316.983 814.285 301.175C813.776 294.981 813.489 290.223 813.425 286.902L805.855 313.013 801.329 313.013 793.361 286.873C793.361 291.111 793.139 296.006 792.7 301.556L791.529 317 786.956 317 789.884 282.002 796.382 282.002 803.747 307.446 810.773 282.002 817.294 282.002Z" fill="#A5A5A5" fill-rule="nonzero" fill-opacity="1" transform="matrix(1.00207 0 0 1 0 247)"/><path d="M847.053 316.983 844.413 308.201 831.158 308.201 828.512 316.983 823.635 316.983 834.858 281.984 840.953 281.984 852.129 316.983ZM832.323 304.284 843.248 304.284 837.785 285.995Z" fill="#A5A5A5" fill-rule="nonzero" fill-opacity="1" transform="matrix(1.00207 0 0 1 0 247)"/><path d="M875.653 281.984 875.149 286.082 865.442 286.082 865.442 316.971 860.618 316.971 860.618 286.094 850.665 286.094 850.665 281.996Z" fill="#A5A5A5" fill-rule="nonzero" fill-opacity="1" transform="matrix(1.00207 0 0 1 0 247)"/><path d="M886.068 281.984 886.068 316.983 881.244 316.983 881.244 281.984Z" fill="#A5A5A5" fill-rule="nonzero" fill-opacity="1" transform="matrix(1.00207 0 0 1 0 247)"/><path d="M913.777 282.189C915.376 282.827 916.863 283.718 918.174 284.829L915.528 287.932C913.649 286.301 911.26 285.382 908.772 285.339 906.026 285.262 903.415 286.51 901.746 288.693 899.967 290.93 899.077 294.519 899.077 299.46 899.077 304.272 899.955 307.82 901.717 310.104 903.356 312.331 905.979 313.612 908.742 313.534 910.083 313.561 911.418 313.302 912.653 312.773 913.906 312.182 915.095 311.466 916.207 310.636L918.596 313.687C917.401 314.88 915.985 315.829 914.427 316.479 912.577 317.257 910.581 317.638 908.573 317.597 903.005 317.749 897.917 314.443 895.798 309.29 894.481 306.183 893.849 302.832 893.942 299.46 893.854 296.081 894.51 292.724 895.874 289.63 896.981 287.11 898.801 284.966 901.102 283.46 903.304 282.071 905.862 281.347 908.467 281.375 910.271 281.33 912.068 281.605 913.777 282.189Z" fill="#A5A5A5" fill-rule="nonzero" fill-opacity="1" transform="matrix(1.00207 0 0 1 0 247)"/><path d="M938.794 282.365C940.574 283.094 942.207 284.135 943.624 285.438L940.978 288.366C939.807 287.404 938.501 286.624 937.096 286.053 935.791 285.554 934.397 285.304 932.998 285.315 931.394 285.252 929.813 285.697 928.478 286.586 927.301 287.441 926.634 288.837 926.722 290.292 926.687 291.185 926.886 292.072 927.307 292.862 927.875 293.691 928.66 294.35 929.573 294.765 931.113 295.513 932.717 296.125 934.368 296.591 936.265 297.146 938.103 297.877 939.859 298.775 941.282 299.539 942.488 300.648 943.372 302.001 944.321 303.569 944.783 305.381 944.713 307.211 944.748 309.113 944.227 310.983 943.214 312.592 942.16 314.203 940.661 315.474 938.899 316.251 936.797 317.179 934.514 317.631 932.219 317.574 927.378 317.574 923.42 316.068 920.335 313.054L922.975 310.127C924.275 311.207 925.732 312.089 927.29 312.744 928.841 313.353 930.498 313.656 932.167 313.634 934.087 313.709 935.984 313.147 937.553 312.036 938.993 310.936 939.789 309.194 939.684 307.387 939.719 306.39 939.496 305.4 939.028 304.518 938.472 303.644 937.687 302.933 936.768 302.458 935.287 301.684 933.73 301.072 932.12 300.631 928.531 299.546 925.902 298.242 924.245 296.72 922.583 295.192 921.757 293.131 921.757 290.52 921.734 288.84 922.22 287.192 923.151 285.795 924.128 284.37 925.481 283.245 927.061 282.546 928.859 281.742 930.808 281.342 932.775 281.375 934.825 281.32 936.868 281.656 938.794 282.365Z" fill="#A5A5A5" fill-rule="nonzero" fill-opacity="1" transform="matrix(1.00207 0 0 1 0 247)"/></g></g></g></g></svg>